<?xml version="1.0" encoding="utf-8"?>
<!-- Generator: Adobe Illustrator 27.8.1, SVG Export Plug-In . SVG Version: 6.00 Build 0)  -->
<svg version="1.1" id="Layer_1" xmlns="http://www.w3.org/2000/svg" xmlns:xlink="http://www.w3.org/1999/xlink" x="0px" y="0px"
	 viewBox="0 0 100 100" style="enable-background:new 0 0 100 100;" xml:space="preserve">
<style type="text/css">
	.st0{fill:#202020;}
	.st1{fill:#000014;}
</style>
<g>
	<g>
		<g>
			<g>
				<path class="st0" d="M87.7,98.7H12.3c-6,0-11-4.9-11-11V12.3c0-6,4.9-11,11-11h75.5c6,0,11,4.9,11,11v75.5
					C98.7,93.8,93.8,98.7,87.7,98.7z M12.3,3C7.1,3,3,7.1,3,12.3v75.5c0,5.1,4.2,9.3,9.3,9.3h75.5c5.1,0,9.3-4.2,9.3-9.3V12.3
					C97,7.1,92.9,3,87.7,3H12.3z"/>
			</g>
		</g>
	</g>
	<g>
		<g>
			<g>
				<path class="st0" d="M70.4,67H29.6c-0.5,0-0.8-0.4-0.8-0.8V25.4c0-0.5,0.4-0.8,0.8-0.8h40.8c0.5,0,0.8,0.4,0.8,0.8v40.8
					C71.3,66.7,70.9,67,70.4,67z M30.5,65.4h39.1V26.3H30.5V65.4z"/>
			</g>
		</g>
	</g>
	<g>
		<g>
			<g>
				<g>
					<g>
						<path class="st1" d="M26.2,87.9V87c-0.8,0.8-1.5,1.1-2.9,1.1c-1.4,0-2.2-0.2-2.8-0.9c-0.4-0.4-0.7-1.1-0.7-1.8
							c0-1.7,1.2-2.7,3.3-2.7h3v-1.1c0-1.5-0.7-2.3-2.7-2.3c-1.3,0-2,0.3-2.6,1.2l-0.7-0.6c0.8-1.1,1.8-1.4,3.3-1.4
							c2.5,0,3.6,1.1,3.6,3.1v6.4H26.2z M26.2,83.4h-2.9c-1.6,0-2.4,0.6-2.4,1.9c0,1.2,0.7,1.8,2.5,1.8c0.9,0,1.7-0.1,2.3-0.7
							c0.4-0.3,0.5-0.9,0.5-1.8V83.4z"/>
					</g>
				</g>
			</g>
			<g>
				<g>
					<g>
						<path class="st1" d="M33.9,79.3c-1.6,0-2.5,1.3-2.5,2.8v5.8h-1v-9.4h1v1.2c0.5-0.9,1.6-1.4,2.8-1.4c0.9,0,1.6,0.2,2.3,0.9
							L35.7,80C35.1,79.5,34.7,79.3,33.9,79.3z"/>
					</g>
				</g>
			</g>
			<g>
				<g>
					<g>
						<path class="st1" d="M44.1,87.9V87c-0.8,0.8-1.5,1.1-2.9,1.1c-1.4,0-2.2-0.2-2.8-0.9c-0.4-0.4-0.7-1.1-0.7-1.8
							c0-1.7,1.2-2.7,3.3-2.7h3v-1.1c0-1.5-0.7-2.3-2.7-2.3c-1.3,0-2,0.3-2.6,1.2l-0.7-0.6c0.8-1.1,1.8-1.4,3.3-1.4
							c2.5,0,3.6,1.1,3.6,3.1v6.4H44.1z M44.1,83.4h-2.9c-1.6,0-2.4,0.6-2.4,1.9c0,1.2,0.7,1.8,2.5,1.8c0.9,0,1.7-0.1,2.3-0.7
							c0.4-0.3,0.5-0.9,0.5-1.8V83.4z"/>
					</g>
				</g>
			</g>
			<g>
				<g>
					<g>
						<path class="st1" d="M54.9,87.9v-5.8c0-1.8-0.9-2.8-2.6-2.8c-1.7,0-2.7,1-2.7,2.8v5.8h-1v-9.4h1v1.1c0.7-0.8,1.6-1.2,2.8-1.2
							c1,0,1.9,0.3,2.5,0.9c0.6,0.6,1,1.5,1,2.6v6H54.9z"/>
					</g>
				</g>
			</g>
			<g>
				<g>
					<g>
						<path class="st1" d="M60,83.4c0,2.4,1.1,3.7,3.1,3.7c1.1,0,1.8-0.3,2.6-1.1l0.7,0.6c-1,1-1.8,1.4-3.4,1.4c-2.6,0-4-1.7-4-4.8
							c0-3,1.4-4.8,3.8-4.8s3.8,1.7,3.8,4.6v0.4H60z M65.2,80.9c-0.4-1-1.3-1.6-2.4-1.6c-1.1,0-2,0.6-2.4,1.6
							c-0.3,0.6-0.3,0.9-0.3,1.8h5.5C65.5,81.7,65.5,81.4,65.2,80.9z"/>
					</g>
				</g>
			</g>
			<g>
				<g>
					<g>
						<path class="st1" d="M72.3,87.9c-1.5,0-2.3-1-2.3-2.5v-6.2h-1.3v-0.7H70v-3h1v3h2.1v0.7H71v6.2c0,1,0.4,1.6,1.4,1.6h0.7v0.9
							H72.3z"/>
					</g>
				</g>
			</g>
		</g>
		<g>
			<g>
				<g>
					<polygon class="st1" points="82.2,75.7 80,75.7 75.6,84 75.6,86.1 80.7,86.1 80.7,87.9 82.9,87.9 82.9,86.1 83.9,86.1 
						83.9,84.1 83,84.1 82.8,84.1 82.8,81.9 80.8,81.9 80.8,84.1 78,84.1 78,83.8 					"/>
				</g>
			</g>
		</g>
	</g>
	<g>
		<g>
			<g>
				<g>
					<path class="st1" d="M54,48.5c-0.1,0-0.1,0-0.2,0c0,0.2,0,0.4,0,0.5c-0.1,0-0.1,0-0.2,0c0,0.1,0,0.2,0,0.4c-0.1,0-0.1,0-0.2,0
						c0,0.1,0,0.2,0,0.4c-0.1,0-0.1,0-0.2,0c0,0.1,0,0.1,0,0.2c-0.1,0-0.1,0-0.2,0c0,0.1,0,0.1,0,0.2c-0.1,0-0.1,0-0.2,0
						c0,0.1,0,0.1,0,0.2c-0.1,0-0.1,0-0.2,0c0,0.1,0,0.1,0,0.2c-0.1,0-0.2,0-0.4,0c0,0.1,0,0.1,0,0.2c-0.1,0-0.1,0-0.2,0
						c0,0.1,0,0.1,0,0.2c-0.2,0-0.4,0-0.5,0c0,0.1,0,0.1,0,0.2c-0.2,0-0.4,0-0.6,0c0,0.1,0,0.1,0,0.2c-0.7,0-1.5,0-2.2,0
						c0-0.1,0-0.1,0-0.2c-0.2,0-0.4,0-0.5,0c0-0.1,0-0.1,0-0.2c-0.2,0-0.4,0-0.6,0c0-0.1,0-0.1,0-0.2c-0.1,0-0.1,0-0.2,0
						c0-0.1,0-0.1,0-0.2c-0.1,0-0.2,0-0.4,0c0-0.1,0-0.1,0-0.2c-0.1,0-0.1,0-0.2,0c0-0.1,0-0.1,0-0.2c-0.1,0-0.1,0-0.2,0
						c0-0.1,0-0.1,0-0.2c-0.1,0-0.1,0-0.2,0c0-0.1,0-0.1,0-0.2c-0.1,0-0.1,0-0.2,0c0-0.1,0-0.2,0-0.4c-0.1,0-0.1,0-0.2,0
						c0-0.1,0-0.2,0-0.4c-0.1,0-0.1,0-0.2,0c0-0.2,0-0.4,0-0.6c-0.1,0-0.1,0-0.2,0c0-0.6,0-1.2,0-1.8c0.1,0,0.1,0,0.2,0
						c0-0.2,0-0.4,0-0.5c0.1,0,0.1,0,0.2,0c0-0.1,0-0.2,0-0.4c0.1,0,0.1,0,0.2,0c0-0.1,0-0.1,0-0.2c0.1,0,0.1,0,0.2,0
						c0-0.1,0-0.1,0-0.2c0.1,0,0.1,0,0.2,0c0-0.1,0-0.2,0-0.4c0.1,0,0.2,0,0.4,0c0-0.1,0-0.1,0-0.2c0.1,0,0.1,0,0.2,0
						c0-0.1,0-0.1,0-0.2c0.1,0,0.1,0,0.2,0c0-0.1,0-0.1,0-0.2c-0.1,0-0.1,0-0.2,0c0-0.1,0-0.1,0-0.2c-0.1,0-0.1,0-0.2,0
						c0-0.1,0-0.1,0-0.2c-0.1,0-0.1,0-0.2,0c0-0.1,0-0.1,0-0.2c-0.1,0-0.1,0-0.2,0c0-0.1,0-0.1,0-0.2c-0.1,0-0.1,0-0.2,0
						c0-0.1,0-0.2,0-0.4c-0.1,0-0.1,0-0.2,0c0-0.1,0-0.2,0-0.4c-0.1,0-0.1,0-0.2,0c0-0.2,0-0.4,0-0.5c-0.1,0-0.1,0-0.2,0
						c0-0.6,0-1.1,0-1.6c0.1,0,0.1,0,0.2,0c0-0.2,0-0.4,0-0.6c0.1,0,0.1,0,0.2,0c0-0.1,0-0.2,0-0.4c0.1,0,0.1,0,0.2,0
						c0-0.1,0-0.2,0-0.4c0.1,0,0.1,0,0.2,0c0-0.1,0-0.1,0-0.2c0.1,0,0.1,0,0.2,0c0-0.1,0-0.1,0-0.2c0.1,0,0.1,0,0.2,0
						c0-0.1,0-0.1,0-0.2c0.1,0,0.1,0,0.2,0c0-0.1,0-0.1,0-0.2c0.1,0,0.1,0,0.2,0c0-0.1,0-0.1,0-0.2c0.1,0,0.2,0,0.4,0
						c0-0.1,0-0.1,0-0.2c0.1,0,0.2,0,0.4,0c0-0.1,0-0.1,0-0.2c0.2,0,0.5,0,0.7,0c0-0.1,0-0.1,0-0.2c0.6,0,1.2,0,1.8,0
						c0,0.1,0,0.1,0,0.2c0.2,0,0.5,0,0.7,0c0,0.1,0,0.1,0,0.2c0.1,0,0.2,0,0.4,0c0,0.1,0,0.1,0,0.2c0.1,0,0.2,0,0.4,0
						c0,0.1,0,0.1,0,0.2c0.1,0,0.1,0,0.2,0c0,0.1,0,0.1,0,0.2c0.1,0,0.1,0,0.2,0c0,0.1,0,0.1,0,0.2c0.1,0,0.1,0,0.2,0
						c0,0.1,0,0.1,0,0.2c0.1,0,0.1,0,0.2,0c0,0.1,0,0.1,0,0.2c0.1,0,0.1,0,0.2,0c0,0.1,0,0.2,0,0.4c0.1,0,0.1,0,0.2,0
						c0,0.1,0,0.2,0,0.4c0.1,0,0.1,0,0.2,0c0,0.2,0,0.4,0,0.5c0.1,0,0.1,0,0.2,0c0,0.6,0,1.1,0,1.6c-0.1,0-0.1,0-0.2,0
						c0,0.2,0,0.4,0,0.6c-0.1,0-0.1,0-0.2,0c0,0.1,0,0.2,0,0.4c-0.1,0-0.1,0-0.2,0c0,0.1,0,0.2,0,0.4c-0.1,0-0.1,0-0.2,0
						c0,0.1,0,0.1,0,0.2c-0.1,0-0.1,0-0.2,0c0,0.1,0,0.1,0,0.2c-0.1,0-0.1,0-0.2,0c0,0.1,0,0.1,0,0.2c-0.1,0-0.1,0-0.2,0
						c0,0.1,0,0.1,0,0.2c-0.1,0-0.1,0-0.2,0c0,0.1,0,0.1,0,0.2c0.1,0,0.1,0,0.2,0c0,0.1,0,0.1,0,0.2c0.1,0,0.1,0,0.2,0
						c0,0.1,0,0.1,0,0.2c0.1,0,0.2,0,0.4,0c0,0.1,0,0.2,0,0.4c0.1,0,0.1,0,0.2,0c0,0.1,0,0.1,0,0.2c0.1,0,0.1,0,0.2,0
						c0,0.1,0,0.1,0,0.2c0.1,0,0.1,0,0.2,0c0,0.1,0,0.2,0,0.4c0.1,0,0.1,0,0.2,0c0,0.2,0,0.4,0,0.5c0.1,0,0.1,0,0.2,0
						C54,47.3,54,47.9,54,48.5z M47.8,46.8c0,0.4,0,0.9,0,1.3c0.1,0,0.1,0,0.2,0c0,0.2,0,0.4,0,0.5c0.1,0,0.1,0,0.2,0
						c0,0.1,0,0.1,0,0.2c0.1,0,0.1,0,0.2,0c0,0.1,0,0.1,0,0.2c0.1,0,0.1,0,0.2,0c0,0.1,0,0.1,0,0.2c0.1,0,0.1,0,0.2,0
						c0,0.1,0,0.1,0,0.2c0.1,0,0.2,0,0.4,0c0,0.1,0,0.1,0,0.2c0.6,0,1.2,0,1.8,0c0-0.1,0-0.1,0-0.2c0.1,0,0.2,0,0.4,0
						c0-0.1,0-0.1,0-0.2c0.1,0,0.1,0,0.2,0c0-0.1,0-0.1,0-0.2c0.1,0,0.1,0,0.2,0c0-0.1,0-0.1,0-0.2c0.1,0,0.1,0,0.2,0
						c0-0.1,0-0.1,0-0.2c0.1,0,0.1,0,0.2,0c0-0.2,0-0.4,0-0.5c0.1,0,0.1,0,0.2,0c0-0.4,0-0.9,0-1.3c-0.1,0-0.1,0-0.2,0
						c0-0.1,0-0.2,0-0.4c-0.1,0-0.1,0-0.2,0c0-0.1,0-0.2,0-0.4c-0.1,0-0.1,0-0.2,0c0-0.1,0-0.1,0-0.2c-0.1,0-0.1,0-0.2,0
						c0-0.1,0-0.1,0-0.2c-0.1,0-0.2,0-0.4,0c0-0.1,0-0.1,0-0.2c-0.1,0-0.2,0-0.4,0c0-0.1,0-0.1,0-0.2c-0.5,0-1,0-1.5,0
						c0,0.1,0,0.1,0,0.2c-0.1,0-0.2,0-0.4,0c0,0.1,0,0.1,0,0.2c-0.1,0-0.2,0-0.4,0c0,0.1,0,0.1,0,0.2c-0.1,0-0.1,0-0.2,0
						c0,0.1,0,0.1,0,0.2c-0.1,0-0.1,0-0.2,0c0,0.1,0,0.2,0,0.4c-0.1,0-0.1,0-0.2,0c0,0.1,0,0.2,0,0.4C47.9,46.8,47.9,46.8,47.8,46.8
						z M52,41c-0.1,0-0.1,0-0.2,0c0-0.1,0-0.2,0-0.4c-0.1,0-0.1,0-0.2,0c0-0.1,0-0.2,0-0.4c-0.1,0-0.1,0-0.2,0c0-0.1,0-0.1,0-0.2
						c-0.1,0-0.2,0-0.4,0c0-0.1,0-0.1,0-0.2c-0.1,0-0.1,0-0.2,0c0-0.1,0-0.1,0-0.2c-0.6,0-1.2,0-1.8,0c0,0.1,0,0.1,0,0.2
						c-0.1,0-0.1,0-0.2,0c0,0.1,0,0.1,0,0.2c-0.1,0-0.2,0-0.4,0c0,0.1,0,0.1,0,0.2c-0.1,0-0.1,0-0.2,0c0,0.1,0,0.2,0,0.4
						c-0.1,0-0.1,0-0.2,0c0,0.1,0,0.2,0,0.4c-0.1,0-0.1,0-0.2,0c0,0.5,0,1,0,1.5c0.1,0,0.1,0,0.2,0c0,0.1,0,0.2,0,0.4
						c0.1,0,0.1,0,0.2,0c0,0.1,0,0.2,0,0.4c0.1,0,0.1,0,0.2,0c0,0.1,0,0.1,0,0.2c0.1,0,0.2,0,0.4,0c0,0.1,0,0.1,0,0.2
						c0.1,0,0.2,0,0.4,0c0,0.1,0,0.1,0,0.2c0.5,0,1,0,1.5,0c0-0.1,0-0.1,0-0.2c0.1,0,0.2,0,0.4,0c0-0.1,0-0.1,0-0.2
						c0.1,0,0.2,0,0.4,0c0-0.1,0-0.1,0-0.2c0.1,0,0.1,0,0.2,0c0-0.1,0-0.2,0-0.4c0.1,0,0.1,0,0.2,0c0-0.1,0-0.2,0-0.4
						c0.1,0,0.1,0,0.2,0C52,42,52,41.5,52,41z"/>
				</g>
			</g>
		</g>
		<g>
			<g>
				<g>
					<path class="st1" d="M40.5,39.9c0-0.1,0-0.2,0-0.4c0.1,0,0.1,0,0.2,0c0-0.1,0-0.2,0-0.4c0.1,0,0.1,0,0.2,0c0-0.1,0-0.2,0-0.4
						c0.1,0,0.1,0,0.2,0c0-0.1,0-0.2,0-0.4c0.1,0,0.1,0,0.2,0c0-0.1,0-0.2,0-0.4c0.7,0,1.5,0,2.2,0c0,0.1,0,0.1,0,0.2
						c-0.1,0-0.1,0-0.2,0c0,0.1,0,0.1,0,0.2c-0.1,0-0.1,0-0.2,0c0,0.1,0,0.2,0,0.4c-0.1,0-0.1,0-0.2,0c0,0.1,0,0.2,0,0.4
						c-0.1,0-0.1,0-0.2,0c0,0.1,0,0.2,0,0.4c-0.1,0-0.1,0-0.2,0c0,0.1,0,0.2,0,0.4c-0.1,0-0.1,0-0.2,0c0,0.1,0,0.2,0,0.4
						c-0.1,0-0.1,0-0.2,0c0,0.1,0,0.2,0,0.4c-0.1,0-0.1,0-0.2,0c0,0.1,0,0.2,0,0.4c-0.1,0-0.1,0-0.2,0c0,0.1,0,0.2,0,0.4
						c-0.1,0-0.1,0-0.2,0c0,0.1,0,0.2,0,0.4c-0.1,0-0.1,0-0.2,0c0,0.1,0,0.1,0,0.2c-0.1,0-0.1,0-0.2,0c0,0.1,0,0.2,0,0.4
						c-0.1,0-0.1,0-0.2,0c0,0.1,0,0.2,0,0.4c-0.1,0-0.1,0-0.2,0c0,0.1,0,0.2,0,0.4c-0.1,0-0.1,0-0.2,0c0,0.1,0,0.2,0,0.4
						c-0.1,0-0.1,0-0.2,0c0,0.1,0,0.1,0,0.2c0.2,0,0.4,0,0.5,0c0-0.1,0-0.1,0-0.2c0.4,0,0.8,0,1.3,0c0,0.1,0,0.1,0,0.2
						c0.2,0,0.4,0,0.6,0c0,0.1,0,0.1,0,0.2c0.1,0,0.2,0,0.4,0c0,0.1,0,0.1,0,0.2c0.1,0,0.2,0,0.4,0c0,0.1,0,0.1,0,0.2
						c0.1,0,0.1,0,0.2,0c0,0.1,0,0.1,0,0.2c0.1,0,0.1,0,0.2,0c0,0.1,0,0.1,0,0.2c0.1,0,0.1,0,0.2,0c0,0.1,0,0.1,0,0.2
						c0.1,0,0.1,0,0.2,0c0,0.1,0,0.2,0,0.4c0.1,0,0.1,0,0.2,0c0,0.1,0,0.1,0,0.2c0.1,0,0.1,0,0.2,0c0,0.2,0,0.4,0,0.5
						c0.1,0,0.1,0,0.2,0c0,0.2,0,0.4,0,0.5c0.1,0,0.1,0,0.2,0c0,0.6,0,1.2,0,1.8c-0.1,0-0.1,0-0.2,0c0,0.2,0,0.5,0,0.7
						c-0.1,0-0.1,0-0.2,0c0,0.1,0,0.2,0,0.4c-0.1,0-0.1,0-0.2,0c0,0.1,0,0.2,0,0.4c-0.1,0-0.1,0-0.2,0c0,0.1,0,0.2,0,0.4
						c-0.1,0-0.1,0-0.2,0c0,0.1,0,0.1,0,0.2c-0.1,0-0.1,0-0.2,0c0,0.1,0,0.1,0,0.2c-0.1,0-0.1,0-0.2,0c0,0.1,0,0.1,0,0.2
						c-0.1,0-0.2,0-0.4,0c0,0.1,0,0.1,0,0.2c-0.1,0-0.1,0-0.2,0c0,0.1,0,0.1,0,0.2c-0.1,0-0.2,0-0.4,0c0,0.1,0,0.1,0,0.2
						c-0.2,0-0.5,0-0.7,0c0,0.1,0,0.1,0,0.2c-0.6,0-1.2,0-1.8,0c0-0.1,0-0.1,0-0.2c-0.2,0-0.5,0-0.7,0c0-0.1,0-0.1,0-0.2
						c-0.1,0-0.2,0-0.4,0c0-0.1,0-0.1,0-0.2c-0.1,0-0.2,0-0.4,0c0-0.1,0-0.1,0-0.2c-0.1,0-0.1,0-0.2,0c0-0.1,0-0.1,0-0.2
						c-0.1,0-0.1,0-0.2,0c0-0.1,0-0.1,0-0.2c-0.1,0-0.1,0-0.2,0c0-0.1,0-0.1,0-0.2c-0.1,0-0.1,0-0.2,0c0-0.1,0-0.1,0-0.2
						c-0.1,0-0.1,0-0.2,0c0-0.1,0-0.2,0-0.4c-0.1,0-0.1,0-0.2,0c0-0.2,0-0.4,0-0.6c-0.1,0-0.1,0-0.2,0c0-0.2,0-0.4,0-0.5
						c-0.1,0-0.1,0-0.2,0c0-0.6,0-1.2,0-1.8c0.1,0,0.1,0,0.2,0c0-0.2,0-0.5,0-0.7c0.1,0,0.1,0,0.2,0c0-0.2,0-0.4,0-0.5
						c0.1,0,0.1,0,0.2,0c0-0.1,0-0.2,0-0.4c0.1,0,0.1,0,0.2,0c0-0.2,0-0.4,0-0.6c0.1,0,0.1,0,0.2,0c0-0.1,0-0.2,0-0.4
						c0.1,0,0.1,0,0.2,0c0-0.1,0-0.2,0-0.4c0.1,0,0.1,0,0.2,0c0-0.1,0-0.2,0-0.4c0.1,0,0.1,0,0.2,0c0-0.1,0-0.2,0-0.4
						c0.1,0,0.1,0,0.2,0c0-0.1,0-0.2,0-0.4c0.1,0,0.1,0,0.2,0c0-0.1,0-0.2,0-0.4c0.1,0,0.1,0,0.2,0c0-0.1,0-0.2,0-0.4
						c0.1,0,0.1,0,0.2,0c0-0.1,0-0.2,0-0.4c0.1,0,0.1,0,0.2,0c0-0.1,0-0.2,0-0.4c0.1,0,0.1,0,0.2,0c0-0.1,0-0.2,0-0.4
						c0.1,0,0.1,0,0.2,0c0-0.1,0-0.2,0-0.4c0.1,0,0.1,0,0.2,0c0-0.1,0-0.2,0-0.4C40.4,39.9,40.4,39.9,40.5,39.9z M39.8,45.7
						c-0.1,0-0.1,0-0.2,0c0,0.1,0,0.1,0,0.2c-0.1,0-0.1,0-0.2,0c0,0.2,0,0.4,0,0.5c-0.1,0-0.1,0-0.2,0c0,0.6,0,1.1,0,1.6
						c0.1,0,0.1,0,0.2,0c0,0.2,0,0.4,0,0.5c0.1,0,0.1,0,0.2,0c0,0.1,0,0.1,0,0.2c0.1,0,0.1,0,0.2,0c0,0.1,0,0.1,0,0.2
						c0.1,0,0.1,0,0.2,0c0,0.1,0,0.1,0,0.2c0.1,0,0.1,0,0.2,0c0,0.1,0,0.1,0,0.2c0.1,0,0.2,0,0.4,0c0,0.1,0,0.1,0,0.2
						c0.5,0,1,0,1.5,0c0-0.1,0-0.1,0-0.2c0.1,0,0.2,0,0.4,0c0-0.1,0-0.1,0-0.2c0.1,0,0.1,0,0.2,0c0-0.1,0-0.1,0-0.2
						c0.1,0,0.1,0,0.2,0c0-0.1,0-0.1,0-0.2c0.1,0,0.1,0,0.2,0c0-0.1,0-0.2,0-0.4c0.1,0,0.1,0,0.2,0c0-0.1,0-0.2,0-0.4
						c0.1,0,0.1,0,0.2,0c0-0.6,0-1.1,0-1.6c-0.1,0-0.1,0-0.2,0c0-0.1,0-0.2,0-0.4c-0.1,0-0.1,0-0.2,0c0-0.1,0-0.2,0-0.4
						c-0.1,0-0.1,0-0.2,0c0-0.1,0-0.1,0-0.2c-0.1,0-0.1,0-0.2,0c0-0.1,0-0.1,0-0.2c-0.1,0-0.1,0-0.2,0c0-0.1,0-0.1,0-0.2
						c-0.1,0-0.2,0-0.4,0c0-0.1,0-0.1,0-0.2c-0.5,0-1,0-1.5,0c0,0.1,0,0.1,0,0.2c-0.1,0-0.2,0-0.4,0c0,0.1,0,0.1,0,0.2
						c-0.1,0-0.1,0-0.2,0c0,0.1,0,0.1,0,0.2c-0.1,0-0.1,0-0.2,0C39.8,45.6,39.8,45.7,39.8,45.7z"/>
				</g>
			</g>
		</g>
		<g>
			<g>
				<g>
					<path class="st1" d="M58.1,38.2c0-0.1,0-0.1,0-0.2c0.5,0,1.1,0,1.6,0c0,0.1,0,0.1,0,0.2c0.2,0,0.5,0,0.7,0c0,0.1,0,0.1,0,0.2
						c0.1,0,0.2,0,0.4,0c0,0.1,0,0.1,0,0.2c0.1,0,0.2,0,0.4,0c0,0.1,0,0.1,0,0.2c0.1,0,0.1,0,0.2,0c0,0.1,0,0.1,0,0.2
						c0.1,0,0.1,0,0.2,0c0,0.1,0,0.1,0,0.2c0.1,0,0.1,0,0.2,0c0,0.1,0,0.1,0,0.2c0.1,0,0.1,0,0.2,0c0,0.1,0,0.1,0,0.2
						c0.1,0,0.1,0,0.2,0c0,0.1,0,0.2,0,0.4c0.1,0,0.1,0,0.2,0c0,0.1,0,0.2,0,0.4c0.1,0,0.1,0,0.2,0c0,0.2,0,0.5,0,0.7
						c0.1,0,0.1,0,0.2,0c0,0.5,0,1,0,1.5c-0.1,0-0.1,0-0.2,0c0,0.2,0,0.4,0,0.5c-0.1,0-0.1,0-0.2,0c0,0.1,0,0.2,0,0.4
						c-0.1,0-0.1,0-0.2,0c0,0.1,0,0.2,0,0.4c-0.1,0-0.1,0-0.2,0c0,0.1,0,0.1,0,0.2c-0.1,0-0.1,0-0.2,0c0,0.1,0,0.1,0,0.2
						c-0.1,0-0.1,0-0.2,0c0,0.1,0,0.1,0,0.2c-0.1,0-0.2,0-0.4,0c0,0.1,0,0.2,0,0.4c0.1,0,0.1,0,0.2,0c0,0.1,0,0.1,0,0.2
						c0.1,0,0.2,0,0.4,0c0,0.1,0,0.1,0,0.2c0.1,0,0.1,0,0.2,0c0,0.1,0,0.1,0,0.2c0.1,0,0.1,0,0.2,0c0,0.1,0,0.1,0,0.2
						c0.1,0,0.1,0,0.2,0c0,0.1,0,0.2,0,0.4c0.1,0,0.1,0,0.2,0c0,0.1,0,0.2,0,0.4c0.1,0,0.1,0,0.2,0c0,0.2,0,0.5,0,0.7
						c0.1,0,0.1,0,0.2,0c0,0.5,0,1,0,1.5c-0.1,0-0.1,0-0.2,0c0,0.2,0,0.5,0,0.7c-0.1,0-0.1,0-0.2,0c0,0.1,0,0.2,0,0.4
						c-0.1,0-0.1,0-0.2,0c0,0.1,0,0.2,0,0.4c-0.1,0-0.1,0-0.2,0c0,0.1,0,0.1,0,0.2c-0.1,0-0.1,0-0.2,0c0,0.1,0,0.1,0,0.2
						c-0.1,0-0.1,0-0.2,0c0,0.1,0,0.1,0,0.2c-0.1,0-0.1,0-0.2,0c0,0.1,0,0.1,0,0.2c-0.1,0-0.2,0-0.4,0c0,0.1,0,0.1,0,0.2
						c-0.1,0-0.1,0-0.2,0c0,0.1,0,0.1,0,0.2c-0.2,0-0.4,0-0.5,0c0,0.1,0,0.1,0,0.2c-0.2,0-0.4,0-0.6,0c0,0.1,0,0.1,0,0.2
						c-0.7,0-1.3,0-2,0c0-0.1,0-0.1,0-0.2c-0.2,0-0.5,0-0.7,0c0-0.1,0-0.1,0-0.2c-0.1,0-0.2,0-0.4,0c0-0.1,0-0.1,0-0.2
						c-0.1,0-0.2,0-0.4,0c0-0.1,0-0.1,0-0.2c-0.1,0-0.1,0-0.2,0c0-0.1,0-0.1,0-0.2c-0.1,0-0.1,0-0.2,0c0-0.1,0-0.1,0-0.2
						c-0.1,0-0.1,0-0.2,0c0-0.1,0-0.1,0-0.2c-0.1,0-0.1,0-0.2,0c0-0.1,0-0.1,0-0.2c-0.1,0-0.1,0-0.2,0c0-0.1,0-0.1,0-0.2
						c-0.1,0-0.1,0-0.2,0c0-0.1,0-0.2,0-0.4c-0.1,0-0.1,0-0.2,0c0-0.2,0-0.4,0-0.5c-0.1,0-0.1,0-0.2,0c0-0.4,0-0.7,0-1.1
						c0.6,0,1.2,0,1.8,0c0,0.2,0,0.5,0,0.7c0.1,0,0.1,0,0.2,0c0,0.1,0,0.2,0,0.4c0.1,0,0.1,0,0.2,0c0,0.1,0,0.1,0,0.2
						c0.1,0,0.1,0,0.2,0c0,0.1,0,0.2,0,0.4c0.1,0,0.2,0,0.4,0c0,0.1,0,0.1,0,0.2c0.1,0,0.2,0,0.4,0c0,0.1,0,0.1,0,0.2
						c0.6,0,1.1,0,1.6,0c0-0.1,0-0.1,0-0.2c0.1,0,0.2,0,0.4,0c0-0.1,0-0.1,0-0.2c0.1,0,0.1,0,0.2,0c0-0.1,0-0.1,0-0.2
						c0.1,0,0.1,0,0.2,0c0-0.1,0-0.1,0-0.2c0.1,0,0.1,0,0.2,0c0-0.1,0-0.1,0-0.2c0.1,0,0.1,0,0.2,0c0-0.2,0-0.4,0-0.5
						c0.1,0,0.1,0,0.2,0c0-0.4,0-0.8,0-1.3c-0.1,0-0.1,0-0.2,0c0-0.2,0-0.4,0-0.5c-0.1,0-0.1,0-0.2,0c0-0.1,0-0.1,0-0.2
						c-0.1,0-0.1,0-0.2,0c0-0.1,0-0.1,0-0.2c-0.1,0-0.1,0-0.2,0c0-0.1,0-0.1,0-0.2c-0.1,0-0.1,0-0.2,0c0-0.1,0-0.1,0-0.2
						c-0.1,0-0.2,0-0.4,0c0-0.1,0-0.1,0-0.2c-0.4,0-0.8,0-1.3,0c0-0.6,0-1.1,0-1.6c0.4,0,0.7,0,1.1,0c0-0.1,0-0.1,0-0.2
						c0.2,0,0.4,0,0.6,0c0-0.1,0-0.1,0-0.2c0.1,0,0.1,0,0.2,0c0-0.1,0-0.1,0-0.2c0.1,0,0.1,0,0.2,0c0-0.1,0-0.2,0-0.4
						c0.1,0,0.1,0,0.2,0c0-0.1,0-0.2,0-0.4c0.1,0,0.1,0,0.2,0c0-0.5,0-1,0-1.5c-0.1,0-0.1,0-0.2,0c0-0.1,0-0.2,0-0.4
						c-0.1,0-0.1,0-0.2,0c0-0.1,0-0.2,0-0.4c-0.1,0-0.1,0-0.2,0c0-0.1,0-0.1,0-0.2c-0.1,0-0.1,0-0.2,0c0-0.1,0-0.1,0-0.2
						c-0.1,0-0.2,0-0.4,0c0-0.1,0-0.1,0-0.2c-0.6,0-1.1,0-1.6,0c0,0.1,0,0.1,0,0.2c-0.1,0-0.2,0-0.4,0c0,0.1,0,0.1,0,0.2
						c-0.1,0-0.1,0-0.2,0c0,0.1,0,0.1,0,0.2c-0.1,0-0.1,0-0.2,0c0,0.1,0,0.2,0,0.4c-0.1,0-0.1,0-0.2,0c0,0.1,0,0.2,0,0.4
						c-0.1,0-0.1,0-0.2,0c0,0.2,0,0.4,0,0.5c-0.6,0-1.2,0-1.8,0c0-0.3,0-0.6,0-0.9c0.1,0,0.1,0,0.2,0c0-0.2,0-0.4,0-0.6
						c0.1,0,0.1,0,0.2,0c0-0.1,0-0.2,0-0.4c0.1,0,0.1,0,0.2,0c0-0.1,0-0.1,0-0.2c0.1,0,0.1,0,0.2,0c0-0.1,0-0.1,0-0.2
						c0.1,0,0.1,0,0.2,0c0-0.1,0-0.2,0-0.4c0.1,0,0.2,0,0.4,0c0-0.1,0-0.1,0-0.2c0.1,0,0.1,0,0.2,0c0-0.1,0-0.1,0-0.2
						c0.1,0,0.2,0,0.4,0c0-0.1,0-0.1,0-0.2c0.1,0,0.2,0,0.4,0c0-0.1,0-0.1,0-0.2C57.6,38.2,57.8,38.2,58.1,38.2z"/>
				</g>
			</g>
		</g>
		<g>
			<g>
				<g>
					<path class="st1" d="M33.5,62.9c0-0.1,0-0.1,0-0.2c-0.1,0-0.2,0-0.4,0c0-0.1,0-0.2,0-0.4c-0.1,0-0.1,0-0.2,0c0-0.6,0-1.2,0-1.8
						c0.1,0,0.1,0,0.2,0c0-0.1,0-0.2,0-0.4c0.1,0,0.2,0,0.4,0c0-0.1,0-0.1,0-0.2c3.1,0,6.1,0,9.1,0c0,0.1,0,0.1,0,0.2
						c0.1,0,0.2,0,0.4,0c0,0.1,0,0.2,0,0.4c0.1,0,0.1,0,0.2,0c0,0.6,0,1.2,0,1.8c-0.1,0-0.1,0-0.2,0c0,0.1,0,0.2,0,0.4
						c-0.1,0-0.2,0-0.4,0c0,0.1,0,0.1,0,0.2C39.6,62.9,36.6,62.9,33.5,62.9z"/>
				</g>
			</g>
		</g>
		<g>
			<g>
				<g>
					<path class="st1" d="M66.1,34.2c-0.4,0-0.9,0-1.3,0c0-0.1,0-0.1,0-0.2c-0.1,0-0.2,0-0.4,0c0-0.1,0-0.1,0-0.2
						c-0.1,0-0.1,0-0.2,0c0-0.1,0-0.1,0-0.2c-0.1,0-0.1,0-0.2,0c0-0.1,0-0.1,0-0.2c-0.1,0-0.1,0-0.2,0c0-0.1,0-0.2,0-0.4
						c-0.1,0-0.1,0-0.2,0c0-0.1,0-0.2,0-0.4c-0.1,0-0.1,0-0.2,0c0-0.4,0-0.7,0-1.1c0.1,0,0.1,0,0.2,0c0-0.1,0-0.2,0-0.4
						c0.1,0,0.1,0,0.2,0c0-0.1,0-0.2,0-0.4c0.1,0,0.1,0,0.2,0c0-0.1,0-0.2,0-0.4c0.1,0,0.1,0,0.2,0c0-0.1,0-0.1,0-0.2
						c0.1,0,0.1,0,0.2,0c0-0.1,0-0.2,0-0.4c0.1,0,0.1,0,0.2,0c0-0.1,0-0.1,0-0.2c0.1,0,0.1,0,0.2,0c0-0.1,0-0.2,0-0.4
						c0.1,0,0.1,0,0.2,0c0-0.1,0-0.1,0-0.2c0.1,0,0.1,0,0.2,0c0-0.1,0-0.2,0-0.4c0.2,0,0.4,0,0.5,0c0,0.1,0,0.2,0,0.4
						c0.1,0,0.1,0,0.2,0c0,0.1,0,0.1,0,0.2c0.1,0,0.1,0,0.2,0c0,0.1,0,0.2,0,0.4c0.1,0,0.1,0,0.2,0c0,0.1,0,0.1,0,0.2
						c0.1,0,0.1,0,0.2,0c0,0.1,0,0.2,0,0.4c0.1,0,0.1,0,0.2,0c0,0.1,0,0.1,0,0.2c0.1,0,0.1,0,0.2,0c0,0.1,0,0.2,0,0.4
						c0.1,0,0.1,0,0.2,0c0,0.1,0,0.2,0,0.4c0.1,0,0.1,0,0.2,0c0,0.1,0,0.2,0,0.4c0.1,0,0.1,0,0.2,0c0,0.4,0,0.7,0,1.1
						c-0.1,0-0.1,0-0.2,0c0,0.1,0,0.2,0,0.4c-0.1,0-0.1,0-0.2,0c0,0.1,0,0.2,0,0.4c-0.1,0-0.1,0-0.2,0c0,0.1,0,0.1,0,0.2
						c-0.1,0-0.1,0-0.2,0c0,0.1,0,0.1,0,0.2c-0.1,0-0.1,0-0.2,0c0,0.1,0,0.1,0,0.2c-0.1,0-0.2,0-0.4,0
						C66.1,34.1,66.1,34.1,66.1,34.2z M65.9,31.5c0.1,0,0.1,0,0.2,0c0-0.1,0-0.1,0-0.2c-0.1,0-0.1,0-0.2,0
						C65.9,31.4,65.9,31.4,65.9,31.5c-0.1,0-0.1,0-0.2,0c0,0.1,0,0.2,0,0.4c-0.1,0-0.1,0-0.2,0c0,0.1,0,0.1,0,0.2
						c-0.1,0-0.1,0-0.2,0c0,0.1,0,0.2,0,0.4c-0.1,0-0.1,0-0.2,0c0,0.1,0,0.2,0,0.4c-0.1,0-0.1,0-0.2,0c0,0.1,0,0.2,0,0.4
						c-0.1,0-0.1,0-0.2,0c0,0.1,0,0.1,0,0.2c0.1,0,0.1,0,0.2,0c0-0.1,0-0.1,0-0.2c0.1,0,0.1,0,0.2,0c0-0.1,0-0.2,0-0.4
						c0.1,0,0.1,0,0.2,0c0-0.1,0-0.1,0-0.2c0.1,0,0.1,0,0.2,0c0-0.1,0-0.2,0-0.4c0.1,0,0.1,0,0.2,0c0-0.1,0-0.2,0-0.4
						c0.1,0,0.1,0,0.2,0C65.9,31.7,65.9,31.6,65.9,31.5z M65.2,32c0-0.2,0-0.4,0-0.6c-0.1,0-0.1,0-0.2,0c0-0.1,0-0.1,0-0.2
						c-0.2,0-0.4,0-0.5,0c0,0.1,0,0.1,0,0.2c-0.1,0-0.1,0-0.2,0c0,0.2,0,0.4,0,0.5c0.1,0,0.1,0,0.2,0c0,0.1,0,0.1,0,0.2
						c0.2,0,0.4,0,0.5,0c0-0.1,0-0.1,0-0.2C65.1,32,65.1,32,65.2,32z M66.5,32.6c0-0.1,0-0.1,0-0.2c-0.2,0-0.4,0-0.6,0
						c0,0.1,0,0.1,0,0.2c-0.1,0-0.1,0-0.2,0c0,0.2,0,0.4,0,0.6c0.1,0,0.1,0,0.2,0c0,0.1,0,0.1,0,0.2c0.2,0,0.4,0,0.6,0
						c0-0.1,0-0.1,0-0.2c0.1,0,0.1,0,0.2,0c0-0.2,0-0.4,0-0.5C66.6,32.6,66.5,32.6,66.5,32.6z"/>
				</g>
			</g>
		</g>
		<g>
			<g>
				<g>
					<path class="st1" d="M45.1,33.3c-0.1,0-0.1,0-0.2,0c0,0.1,0,0.2,0,0.4c-0.1,0-0.1,0-0.2,0c0,0.1,0,0.1,0,0.2
						c-0.1,0-0.1,0-0.2,0c0,0.1,0,0.1,0,0.2c-0.1,0-0.2,0-0.4,0c0,0.1,0,0.1,0,0.2c-0.4,0-0.9,0-1.3,0c0-0.1,0-0.1,0-0.2
						c-0.1,0-0.2,0-0.4,0c0-0.1,0-0.1,0-0.2c-0.1,0-0.1,0-0.2,0c0-0.1,0-0.1,0-0.2c-0.1,0-0.1,0-0.2,0c0-0.1,0-0.2,0-0.4
						c-0.1,0-0.1,0-0.2,0c0-1.2,0-2.3,0-3.5c0.1,0,0.1,0,0.2,0c0-0.1,0-0.2,0-0.4c0.1,0,0.1,0,0.2,0c0-0.1,0-0.1,0-0.2
						c0.1,0,0.1,0,0.2,0c0-0.1,0-0.1,0-0.2c0.1,0,0.2,0,0.4,0c0-0.1,0-0.1,0-0.2c0.4,0,0.9,0,1.3,0c0,0.1,0,0.1,0,0.2
						c0.1,0,0.2,0,0.4,0c0,0.1,0,0.1,0,0.2c0.1,0,0.1,0,0.2,0c0,0.1,0,0.1,0,0.2c0.1,0,0.1,0,0.2,0c0,0.1,0,0.2,0,0.4
						c0.1,0,0.1,0,0.2,0C45.1,31,45.1,32.1,45.1,33.3z M42.9,30c0,1,0,2.1,0,3.1c0.1,0,0.1,0,0.2,0c0,0.1,0,0.1,0,0.2
						c0.1,0,0.1,0,0.2,0c0,0.1,0,0.1,0,0.2c0.2,0,0.4,0,0.5,0c0-0.1,0-0.1,0-0.2c0.1,0,0.1,0,0.2,0c0-0.1,0-0.1,0-0.2
						c0.1,0,0.1,0,0.2,0c0-1,0-2.1,0-3.1c-0.1,0-0.1,0-0.2,0c0-0.1,0-0.1,0-0.2c-0.1,0-0.1,0-0.2,0c0-0.1,0-0.1,0-0.2
						c-0.2,0-0.4,0-0.5,0c0,0.1,0,0.1,0,0.2c-0.1,0-0.1,0-0.2,0c0,0.1,0,0.1,0,0.2C43,30,42.9,30,42.9,30z"/>
				</g>
			</g>
		</g>
		<g>
			<g>
				<g>
					<path class="st1" d="M57,29.6c0,0.3,0,0.6,0,0.9c0.4,0,0.8,0,1.3,0c0,0.1,0,0.1,0,0.2c0.1,0,0.2,0,0.4,0c0,0.1,0,0.1,0,0.2
						c0.1,0,0.1,0,0.2,0c0,0.1,0,0.1,0,0.2c0.1,0,0.1,0,0.2,0c0,0.1,0,0.2,0,0.4c0.1,0,0.1,0,0.2,0c0,0.6,0,1.2,0,1.8
						c-0.1,0-0.1,0-0.2,0c0,0.1,0,0.2,0,0.4c-0.1,0-0.1,0-0.2,0c0,0.1,0,0.1,0,0.2c-0.1,0-0.1,0-0.2,0c0,0.1,0,0.1,0,0.2
						c-0.1,0-0.2,0-0.4,0c0,0.1,0,0.1,0,0.2c-0.4,0-0.9,0-1.3,0c0-0.1,0-0.1,0-0.2c-0.1,0-0.2,0-0.4,0c0-0.1,0-0.1,0-0.2
						c-0.1,0-0.1,0-0.2,0c0-0.1,0-0.1,0-0.2c-0.1,0-0.1,0-0.2,0c0-0.1,0-0.2,0-0.4c-0.1,0-0.1,0-0.2,0c0-0.2,0-0.5,0-0.7
						c0.3,0,0.6,0,0.9,0c0,0.2,0,0.4,0,0.5c0.1,0,0.1,0,0.2,0c0,0.1,0,0.1,0,0.2c0.1,0,0.1,0,0.2,0c0,0.1,0,0.1,0,0.2
						c0.2,0,0.4,0,0.6,0c0-0.1,0-0.1,0-0.2c0.1,0,0.1,0,0.2,0c0-0.1,0-0.1,0-0.2c0.1,0,0.1,0,0.2,0c0-0.5,0-1,0-1.5
						c-0.1,0-0.1,0-0.2,0c0-0.1,0-0.1,0-0.2c-0.1,0-0.1,0-0.2,0c0-0.1,0-0.1,0-0.2c-0.2,0-0.4,0-0.5,0c0,0.1,0,0.1,0,0.2
						c-0.1,0-0.1,0-0.2,0c0,0.1,0,0.1,0,0.2c-0.1,0-0.1,0-0.2,0c0,0.1,0,0.1,0,0.2c-0.2,0-0.5,0-0.7,0c0-1,0-1.9,0-2.9
						c0.9,0,1.8,0,2.7,0c0,0.2,0,0.5,0,0.7C58.3,29.6,57.6,29.6,57,29.6z"/>
				</g>
			</g>
		</g>
		<g>
			<g>
				<g>
					<path class="st1" d="M33,34.2c0-0.3,0-0.6,0-0.9c0.1,0,0.1,0,0.2,0c0-0.1,0-0.1,0-0.2c0.1,0,0.1,0,0.2,0c0-0.1,0-0.2,0-0.4
						c0.1,0,0.1,0,0.2,0c0-0.1,0-0.1,0-0.2c0.1,0,0.1,0,0.2,0c0-0.1,0-0.1,0-0.2c0.1,0,0.1,0,0.2,0c0-0.1,0-0.1,0-0.2
						c0.1,0,0.1,0,0.2,0c0-0.1,0-0.2,0-0.4c0.1,0,0.1,0,0.2,0c0-0.1,0-0.1,0-0.2c0.1,0,0.1,0,0.2,0c0-0.1,0-0.1,0-0.2
						c0.1,0,0.1,0,0.2,0c0-0.1,0-0.1,0-0.2c0.1,0,0.1,0,0.2,0c0-0.1,0-0.1,0-0.2c0.1,0,0.1,0,0.2,0c0-0.1,0-0.2,0-0.4
						c0.1,0,0.1,0,0.2,0c0-0.2,0-0.5,0-0.7c-0.1,0-0.1,0-0.2,0c0-0.1,0-0.1,0-0.2c-0.1,0-0.1,0-0.2,0c0-0.1,0-0.1,0-0.2
						c-0.2,0-0.4,0-0.5,0c0,0.1,0,0.1,0,0.2c-0.1,0-0.2,0-0.4,0c0,0.2,0,0.5,0,0.7c-0.3,0-0.6,0-0.9,0c0-0.3,0-0.6,0-0.9
						c0.1,0,0.1,0,0.2,0c0-0.1,0-0.1,0-0.2c0.1,0,0.1,0,0.2,0c0-0.1,0-0.2,0-0.4c0.1,0,0.2,0,0.4,0c0-0.1,0-0.1,0-0.2
						c0.6,0,1.1,0,1.6,0c0,0.1,0,0.1,0,0.2c0.1,0,0.1,0,0.2,0c0,0.1,0,0.1,0,0.2c0.1,0,0.1,0,0.2,0c0,0.1,0,0.1,0,0.2
						c0.1,0,0.1,0,0.2,0c0,0.1,0,0.2,0,0.4c0.1,0,0.1,0,0.2,0c0,0.4,0,0.7,0,1.1c-0.1,0-0.1,0-0.2,0c0,0.1,0,0.2,0,0.4
						c-0.1,0-0.1,0-0.2,0c0,0.1,0,0.1,0,0.2c-0.1,0-0.1,0-0.2,0c0,0.1,0,0.1,0,0.2c-0.1,0-0.1,0-0.2,0c0,0.1,0,0.2,0,0.4
						c-0.1,0-0.1,0-0.2,0c0,0.1,0,0.1,0,0.2c-0.1,0-0.1,0-0.2,0c0,0.1,0,0.1,0,0.2c-0.1,0-0.1,0-0.2,0c0,0.1,0,0.2,0,0.4
						c-0.1,0-0.1,0-0.2,0c0,0.1,0,0.1,0,0.2c-0.1,0-0.1,0-0.2,0c0,0.1,0,0.1,0,0.2c-0.1,0-0.1,0-0.2,0c0,0.1,0,0.1,0,0.2
						c0.6,0,1.2,0,1.8,0c0,0.3,0,0.6,0,0.9C35.1,34.2,34,34.2,33,34.2z"/>
				</g>
			</g>
		</g>
		<g>
			<g>
				<g>
					<path class="st1" d="M61.9,33.3c0-0.1,0-0.1,0-0.2c0.1,0,0.1,0,0.2,0c0-0.3,0-0.6,0-0.9c-0.1,0-0.1,0-0.2,0c0-0.1,0-0.1,0-0.2
						c-0.1,0-0.1,0-0.2,0c0-0.1,0-0.1,0-0.2c-0.2,0-0.4,0-0.5,0c0-0.2,0-0.5,0-0.7c0.2,0,0.4,0,0.5,0c0-0.1,0-0.1,0-0.2
						c0.1,0,0.1,0,0.2,0c0-0.1,0-0.1,0-0.2c0.1,0,0.1,0,0.2,0c0-0.2,0-0.5,0-0.7c-0.1,0-0.1,0-0.2,0c0-0.1,0-0.1,0-0.2
						c-0.1,0-0.1,0-0.2,0c0-0.1,0-0.1,0-0.2c-0.2,0-0.5,0-0.7,0c0,0.1,0,0.1,0,0.2c-0.1,0-0.1,0-0.2,0c0,0.1,0,0.2,0,0.4
						c-0.1,0-0.1,0-0.2,0c0,0.1,0,0.1,0,0.2c-0.2,0-0.5,0-0.7,0c0-0.2,0-0.5,0-0.7c0.1,0,0.1,0,0.2,0c0-0.1,0-0.2,0-0.4
						c0.1,0,0.1,0,0.2,0c0-0.1,0-0.1,0-0.2c0.1,0,0.2,0,0.4,0c0-0.1,0-0.1,0-0.2c0.6,0,1.1,0,1.6,0c0,0.1,0,0.1,0,0.2
						c0.1,0,0.1,0,0.2,0c0,0.1,0,0.1,0,0.2c0.1,0,0.1,0,0.2,0c0,0.1,0,0.1,0,0.2c0.1,0,0.1,0,0.2,0c0,0.2,0,0.4,0,0.6
						c0.1,0,0.1,0,0.2,0c0,0.2,0,0.5,0,0.7c-0.1,0-0.1,0-0.2,0c0,0.1,0,0.2,0,0.4c-0.1,0-0.1,0-0.2,0c0,0.2,0,0.4,0,0.5
						c0.1,0,0.1,0,0.2,0c0,0.1,0,0.2,0,0.4c0.1,0,0.1,0,0.2,0c0,0.4,0,0.8,0,1.3c-0.1,0-0.1,0-0.2,0c0,0.1,0,0.2,0,0.4
						c-0.1,0-0.1,0-0.2,0c0,0.1,0,0.1,0,0.2c-0.1,0-0.1,0-0.2,0c0,0.1,0,0.1,0,0.2c-0.1,0-0.2,0-0.4,0c0,0.1,0,0.1,0,0.2
						c-0.5,0-1,0-1.5,0c0-0.1,0-0.1,0-0.2c-0.1,0-0.2,0-0.4,0c0-0.1,0-0.1,0-0.2c-0.1,0-0.1,0-0.2,0c0-0.1,0-0.1,0-0.2
						c-0.1,0-0.1,0-0.2,0c0-0.2,0-0.4,0-0.5c-0.1,0-0.1,0-0.2,0c0-0.2,0-0.4,0-0.5c0.3,0,0.6,0,0.9,0c0,0.1,0,0.2,0,0.4
						c0.1,0,0.1,0,0.2,0c0,0.1,0,0.2,0,0.4c0.1,0,0.2,0,0.4,0c0,0.1,0,0.1,0,0.2c0.1,0,0.2,0,0.4,0c0-0.1,0-0.1,0-0.2
						C61.7,33.3,61.8,33.3,61.9,33.3z"/>
				</g>
			</g>
		</g>
		<g>
			<g>
				<g>
					<path class="st1" d="M66.8,60c0,0.1,0,0.1,0,0.2c0.1,0,0.2,0,0.4,0c0,0.1,0,0.2,0,0.4c0.1,0,0.1,0,0.2,0c0,0.6,0,1.2,0,1.8
						c-0.1,0-0.1,0-0.2,0c0,0.1,0,0.2,0,0.4c-0.1,0-0.2,0-0.4,0c0,0.1,0,0.1,0,0.2c-3.1,0-6.1,0-9.1,0c0-0.1,0-0.1,0-0.2
						c-0.1,0-0.2,0-0.4,0c0-0.1,0-0.2,0-0.4c-0.1,0-0.1,0-0.2,0c0-0.6,0-1.2,0-1.8c0.1,0,0.1,0,0.2,0c0-0.1,0-0.2,0-0.4
						c0.1,0,0.2,0,0.4,0c0-0.1,0-0.1,0-0.2C60.7,60,63.8,60,66.8,60z M67,62c0-0.4,0-0.7,0-1.1c-0.1,0-0.1,0-0.2,0
						c0-0.1,0-0.2,0-0.4c-0.1,0-0.2,0-0.4,0c0-0.1,0-0.1,0-0.2c-2.8,0-5.6,0-8.4,0c0,0.1,0,0.1,0,0.2c-0.1,0-0.2,0-0.4,0
						c0,0.1,0,0.2,0,0.4c-0.1,0-0.1,0-0.2,0c0,0.4,0,0.7,0,1.1c0.1,0,0.1,0,0.2,0c0,0.1,0,0.2,0,0.4c0.1,0,0.2,0,0.4,0
						c0,0.1,0,0.1,0,0.2c2.8,0,5.6,0,8.4,0c0-0.1,0-0.1,0-0.2c0.1,0,0.2,0,0.4,0c0-0.1,0-0.2,0-0.4C66.9,62,67,62,67,62z"/>
				</g>
			</g>
		</g>
		<g>
			<g>
				<g>
					<path class="st1" d="M55.3,62.4c-0.1,0-0.1,0-0.2,0c0,0.1,0,0.2,0,0.4c-0.1,0-0.2,0-0.4,0c0,0.1,0,0.1,0,0.2c-3,0-6.1,0-9.1,0
						c0-0.1,0-0.1,0-0.2c-0.1,0-0.2,0-0.4,0c0-0.1,0-0.2,0-0.4c-0.1,0-0.1,0-0.2,0c0-0.6,0-1.2,0-1.8c0.1,0,0.1,0,0.2,0
						c0-0.1,0-0.2,0-0.4c0.1,0,0.2,0,0.4,0c0-0.1,0-0.1,0-0.2c3.1,0,6.1,0,9.1,0c0,0.1,0,0.1,0,0.2c0.1,0,0.2,0,0.4,0
						c0,0.1,0,0.2,0,0.4c0.1,0,0.1,0,0.2,0C55.3,61.2,55.3,61.8,55.3,62.4z M46,62.6c2.8,0,5.6,0,8.4,0c0-0.1,0-0.1,0-0.2
						c0.1,0,0.2,0,0.4,0c0-0.1,0-0.2,0-0.4c0.1,0,0.1,0,0.2,0c0-0.4,0-0.7,0-1.1c-0.1,0-0.1,0-0.2,0c0-0.1,0-0.2,0-0.4
						c-0.1,0-0.2,0-0.4,0c0-0.1,0-0.1,0-0.2c-2.8,0-5.6,0-8.4,0c0,0.1,0,0.1,0,0.2c-0.1,0-0.2,0-0.4,0c0,0.1,0,0.2,0,0.4
						c-0.1,0-0.1,0-0.2,0c0,0.4,0,0.7,0,1.1c0.1,0,0.1,0,0.2,0c0,0.1,0,0.2,0,0.4c0.1,0,0.2,0,0.4,0C46,62.4,46,62.5,46,62.6z"/>
				</g>
			</g>
		</g>
		<g>
			<g>
				<g>
					<path class="st1" d="M48.5,33.9c0-0.1,0-0.1,0-0.2c-0.1,0-0.1,0-0.2,0c0-0.1,0-0.2,0-0.4c-0.1,0-0.1,0-0.2,0c0-1.2,0-2.3,0-3.5
						c0.1,0,0.1,0,0.2,0c0-0.1,0-0.2,0-0.4c0.1,0,0.1,0,0.2,0c0-0.1,0-0.1,0-0.2c0.1,0,0.1,0,0.2,0c0-0.1,0-0.1,0-0.2
						c0.1,0,0.2,0,0.4,0c0-0.1,0-0.1,0-0.2c0.4,0,0.8,0,1.3,0c0,0.1,0,0.1,0,0.2c0.1,0,0.2,0,0.4,0c0,0.1,0,0.1,0,0.2
						c0.1,0,0.1,0,0.2,0c0,0.1,0,0.1,0,0.2c0.1,0,0.1,0,0.2,0c0,0.1,0,0.2,0,0.4c0.1,0,0.1,0,0.2,0c0,0.2,0,0.5,0,0.7
						c-0.3,0-0.6,0-0.9,0c0-0.2,0-0.4,0-0.5c-0.1,0-0.1,0-0.2,0c0-0.1,0-0.1,0-0.2c-0.1,0-0.2,0-0.4,0c0-0.1,0-0.1,0-0.2
						c-0.1,0-0.1,0-0.2,0c0,0.1,0,0.1,0,0.2c-0.1,0-0.2,0-0.4,0c0,0.1,0,0.1,0,0.2c-0.1,0-0.1,0-0.2,0c0,1,0,2.1,0,3.1
						c0.1,0,0.1,0,0.2,0c0,0.1,0,0.1,0,0.2c0.1,0,0.2,0,0.4,0c0,0.1,0,0.1,0,0.2c0.1,0,0.1,0,0.2,0c0-0.1,0-0.1,0-0.2
						c0.1,0,0.2,0,0.4,0c0-0.1,0-0.1,0-0.2c0.1,0,0.1,0,0.2,0c0-0.2,0-0.4,0-0.5c0.3,0,0.6,0,0.9,0c0,0.2,0,0.5,0,0.7
						c-0.1,0-0.1,0-0.2,0c0,0.1,0,0.2,0,0.4c-0.1,0-0.1,0-0.2,0c0,0.1,0,0.1,0,0.2c-0.1,0-0.1,0-0.2,0c0,0.1,0,0.1,0,0.2
						c-0.1,0-0.2,0-0.4,0c0,0.1,0,0.1,0,0.2c-0.4,0-0.8,0-1.3,0c0-0.1,0-0.1,0-0.2c-0.1,0-0.2,0-0.4,0c0-0.1,0-0.1,0-0.2
						C48.7,33.9,48.6,33.9,48.5,33.9z"/>
				</g>
			</g>
		</g>
		<g>
			<g>
				<g>
					<path class="st1" d="M37.6,30.7c0-0.1,0-0.2,0-0.4c0.1,0,0.1,0,0.2,0c0-0.1,0-0.2,0-0.4c0.1,0,0.1,0,0.2,0c0-0.1,0-0.2,0-0.4
						c0.1,0,0.1,0,0.2,0c0-0.1,0-0.2,0-0.4c0.1,0,0.1,0,0.2,0c0-0.1,0-0.2,0-0.4c0.3,0,0.6,0,0.9,0c0,0.2,0,0.4,0,0.5
						c-0.1,0-0.1,0-0.2,0c0,0.1,0,0.2,0,0.4c-0.1,0-0.1,0-0.2,0c0,0.1,0,0.2,0,0.4c-0.1,0-0.1,0-0.2,0c0,0.1,0,0.2,0,0.4
						c-0.1,0-0.1,0-0.2,0c0,0.1,0,0.2,0,0.4c-0.1,0-0.1,0-0.2,0c0,0.1,0,0.2,0,0.4c-0.1,0-0.1,0-0.2,0c0,0.1,0,0.2,0,0.4
						c-0.1,0-0.1,0-0.2,0c0,0.1,0,0.2,0,0.4c-0.1,0-0.1,0-0.2,0c0,0.2,0,0.4,0,0.5c0.3,0,0.6,0,0.9,0c0-0.4,0-0.8,0-1.3
						c0.3,0,0.6,0,0.9,0c0,0.4,0,0.8,0,1.3c0.1,0,0.2,0,0.4,0c0,0.3,0,0.6,0,0.9c-0.1,0-0.2,0-0.4,0c0,0.2,0,0.5,0,0.7
						c-0.3,0-0.6,0-0.9,0c0-0.2,0-0.5,0-0.7c-0.7,0-1.3,0-2,0c0-0.4,0-0.9,0-1.3c0.1,0,0.1,0,0.2,0c0-0.1,0-0.2,0-0.4
						c0.1,0,0.1,0,0.2,0c0-0.1,0-0.2,0-0.4c0.1,0,0.1,0,0.2,0c0-0.1,0-0.2,0-0.4c0.1,0,0.1,0,0.2,0c0-0.1,0-0.2,0-0.4
						C37.5,30.7,37.5,30.7,37.6,30.7z"/>
				</g>
			</g>
		</g>
		<g>
			<g>
				<g>
					<path class="st1" d="M50.6,55.1c0,1,0,1.9,0,2.9c-0.9,0-1.8,0-2.7,0c0-1,0-1.9,0-2.9C48.8,55.1,49.7,55.1,50.6,55.1z
						 M48.8,57.4c0-0.1,0-0.2,0-0.4c0.3,0,0.6,0,0.9,0c0,0.1,0,0.2,0,0.4c0.1,0,0.2,0,0.4,0c0-0.1,0-0.2,0-0.4c-0.1,0-0.1,0-0.2,0
						c0-0.1,0-0.2,0-0.4c-0.1,0-0.1,0-0.2,0c0-0.2,0-0.4,0-0.5c-0.1,0-0.1,0-0.2,0c0-0.1,0-0.2,0-0.4c-0.1,0-0.1,0-0.2,0
						c0-0.1,0-0.1,0-0.2c-0.1,0-0.1,0-0.2,0c0,0.1,0,0.1,0,0.2c-0.1,0-0.1,0-0.2,0c0,0.1,0,0.2,0,0.4c-0.1,0-0.1,0-0.2,0
						c0,0.2,0,0.4,0,0.5c-0.1,0-0.1,0-0.2,0c0,0.1,0,0.2,0,0.4c-0.1,0-0.1,0-0.2,0c0,0.1,0,0.2,0,0.4C48.5,57.4,48.7,57.4,48.8,57.4
						z"/>
				</g>
			</g>
		</g>
		<g>
			<g>
				<g>
					<path class="st1" d="M37.4,55.3c0,0.1,0,0.1,0,0.2c0.1,0,0.1,0,0.2,0c0,0.8,0,1.6,0,2.4c-0.1,0-0.1,0-0.2,0c0,0.1,0,0.1,0,0.2
						c-1.4,0-2.8,0-4.2,0c0-0.1,0-0.1,0-0.2c-0.1,0-0.1,0-0.2,0c0-0.8,0-1.6,0-2.4c0.1,0,0.1,0,0.2,0c0-0.1,0-0.1,0-0.2
						C34.6,55.3,36,55.3,37.4,55.3z M33.5,57.6c1.2,0,2.3,0,3.5,0c0-0.1,0-0.1,0-0.2c0.1,0,0.1,0,0.2,0c0-0.6,0-1.1,0-1.6
						c-0.1,0-0.1,0-0.2,0c0-0.1,0-0.1,0-0.2c-1.2,0-2.3,0-3.5,0c0,0.1,0,0.1,0,0.2c-0.1,0-0.1,0-0.2,0c0,0.6,0,1.1,0,1.6
						c0.1,0,0.1,0,0.2,0C33.5,57.5,33.5,57.6,33.5,57.6z"/>
				</g>
			</g>
		</g>
		<g>
			<g>
				<g>
					<path class="st1" d="M45.8,29.5c0-0.1,0-0.1,0-0.2c0.1,0,0.1,0,0.2,0c0-0.1,0-0.1,0-0.2c0.1,0,0.1,0,0.2,0c0-0.1,0-0.1,0-0.2
						c0.4,0,0.7,0,1.1,0c0,0.1,0,0.1,0,0.2c0.1,0,0.1,0,0.2,0c0,0.1,0,0.1,0,0.2c0.1,0,0.1,0,0.2,0c0,0.1,0,0.1,0,0.2
						c0.1,0,0.1,0,0.2,0c0,0.4,0,0.7,0,1.1c-0.1,0-0.1,0-0.2,0c0,0.1,0,0.1,0,0.2c-0.1,0-0.1,0-0.2,0c0,0.1,0,0.1,0,0.2
						c-0.1,0-0.1,0-0.2,0c0,0.1,0,0.1,0,0.2c-0.4,0-0.7,0-1.1,0c0-0.1,0-0.1,0-0.2c-0.1,0-0.1,0-0.2,0c0-0.1,0-0.1,0-0.2
						c-0.1,0-0.1,0-0.2,0c0-0.1,0-0.1,0-0.2c-0.1,0-0.1,0-0.2,0c0-0.4,0-0.7,0-1.1C45.7,29.5,45.7,29.5,45.8,29.5z M47.1,30.2
						c0-0.1,0-0.2,0-0.4c-0.1,0-0.1,0-0.2,0c0-0.1,0-0.1,0-0.2c-0.1,0-0.2,0-0.4,0c0,0.1,0,0.1,0,0.2c-0.1,0-0.1,0-0.2,0
						c0,0.1,0,0.2,0,0.4c0.1,0,0.1,0,0.2,0c0,0.1,0,0.1,0,0.2c0.1,0,0.2,0,0.4,0c0-0.1,0-0.1,0-0.2C47,30.2,47,30.2,47.1,30.2z"/>
				</g>
			</g>
		</g>
		<g>
			<g>
				<g>
					<path class="st1" d="M53.2,58c0-0.1,0-0.1,0-0.2c-0.1,0-0.1,0-0.2,0c0-0.1,0-0.1,0-0.2c-0.1,0-0.1,0-0.2,0c0-0.1,0-0.1,0-0.2
						c-0.1,0-0.1,0-0.2,0c0-0.1,0-0.1,0-0.2c-0.4,0-0.7,0-1.1,0c0-0.5,0-1,0-1.5c0.4,0,0.7,0,1.1,0c0-0.1,0-0.1,0-0.2
						c0.1,0,0.1,0,0.2,0c0-0.1,0-0.1,0-0.2c0.1,0,0.1,0,0.2,0c0-0.1,0-0.1,0-0.2c0.1,0,0.1,0,0.2,0c0-0.1,0-0.1,0-0.2
						c0.1,0,0.1,0,0.2,0c0-0.1,0-0.1,0-0.2c0.1,0,0.1,0,0.2,0c0-0.1,0-0.1,0-0.2c0.1,0,0.2,0,0.4,0c0,1.2,0,2.4,0,3.6
						c-0.1,0-0.2,0-0.4,0c0-0.1,0-0.1,0-0.2c-0.1,0-0.1,0-0.2,0c0-0.1,0-0.1,0-0.2C53.3,58,53.2,58,53.2,58z M51.9,56.2
						c0,0.3,0,0.5,0,0.7c0.3,0,0.6,0,0.9,0c0,0.1,0,0.1,0,0.2c0.1,0,0.1,0,0.2,0c0,0.1,0,0.1,0,0.2c0.1,0,0.1,0,0.2,0
						c0,0.1,0,0.1,0,0.2c0.1,0,0.1,0,0.2,0c0,0.1,0,0.1,0,0.2c0.1,0,0.1,0,0.2,0c0-0.7,0-1.5,0-2.2c-0.1,0-0.1,0-0.2,0
						c0,0.1,0,0.1,0,0.2c-0.1,0-0.1,0-0.2,0c0,0.1,0,0.1,0,0.2c-0.1,0-0.1,0-0.2,0c0,0.1,0,0.1,0,0.2c-0.1,0-0.1,0-0.2,0
						c0,0.1,0,0.1,0,0.2C52.5,56.2,52.2,56.2,51.9,56.2z"/>
				</g>
			</g>
		</g>
		<g>
			<g>
				<g>
					<path class="st1" d="M65,56c0.3,0,0.6,0,0.9,0c0,0.1,0,0.1,0,0.2c0.1,0,0.2,0,0.4,0c0-0.1,0-0.1,0-0.2c0.2,0,0.5,0,0.7,0
						c0,0.1,0,0.1,0,0.2c0.1,0,0.1,0,0.2,0c0,0.4,0,0.8,0,1.3c-0.1,0-0.2,0-0.4,0c0-0.3,0-0.6,0-0.9c-0.1,0-0.1,0-0.2,0
						c0-0.1,0-0.1,0-0.2c-0.1,0-0.2,0-0.4,0c0,0.4,0,0.7,0,1.1c-0.1,0-0.2,0-0.4,0c0-0.3,0-0.6,0-0.9c-0.1,0-0.1,0-0.2,0
						c0-0.1,0-0.1,0-0.2c-0.1,0-0.2,0-0.4,0c0,0.4,0,0.7,0,1.1c-0.1,0-0.2,0-0.4,0C65,57,65,56.5,65,56z"/>
				</g>
			</g>
		</g>
		<g>
			<g>
				<g>
					<path class="st1" d="M58.8,57.1c-0.1,0-0.1,0-0.2,0c0-0.4,0-0.8,0-1.3c0.1,0,0.1,0,0.2,0c0-0.1,0-0.1,0-0.2c0.1,0,0.1,0,0.2,0
						c0-0.1,0-0.1,0-0.2c0.2,0,0.5,0,0.7,0c0,0.1,0,0.1,0,0.2c0.1,0,0.1,0,0.2,0c0,0.1,0,0.1,0,0.2c0.1,0,0.1,0,0.2,0
						c0,0.4,0,0.8,0,1.3c-0.1,0-0.1,0-0.2,0c0,0.1,0,0.1,0,0.2c-0.1,0-0.1,0-0.2,0c0,0.1,0,0.1,0,0.2c-0.2,0-0.5,0-0.7,0
						c0-0.1,0-0.1,0-0.2c-0.1,0-0.1,0-0.2,0C58.8,57.2,58.8,57.2,58.8,57.1z M59,55.8c0,0.4,0,0.8,0,1.3c0.2,0,0.5,0,0.7,0
						c0-0.4,0-0.8,0-1.3C59.5,55.8,59.2,55.8,59,55.8z"/>
				</g>
			</g>
		</g>
		<g>
			<g>
				<g>
					<path class="st1" d="M64.5,56.2c0.1,0,0.1,0,0.2,0c0,0.1,0,0.1,0,0.2c0.1,0,0.1,0,0.2,0c0,0.2,0,0.5,0,0.7c-0.1,0-0.1,0-0.2,0
						c0,0.1,0,0.1,0,0.2c-0.1,0-0.1,0-0.2,0c0,0.1,0,0.1,0,0.2c-0.2,0-0.4,0-0.5,0c0,0.2,0,0.4,0,0.5c-0.1,0-0.2,0-0.4,0
						c0-0.7,0-1.3,0-2c0.3,0,0.6,0,0.9,0C64.5,56.1,64.5,56.1,64.5,56.2z M63.9,56.4c0,0.2,0,0.5,0,0.7c0.2,0,0.4,0,0.5,0
						c0-0.2,0-0.5,0-0.7C64.3,56.4,64.1,56.4,63.9,56.4z"/>
				</g>
			</g>
		</g>
		<g>
			<g>
				<g>
					<path class="st1" d="M62.1,56c0.3,0,0.6,0,0.9,0c0,0.1,0,0.1,0,0.2c0.1,0,0.1,0,0.2,0c0,0.1,0,0.1,0,0.2c0.1,0,0.1,0,0.2,0
						c0,0.2,0,0.5,0,0.7c-0.1,0-0.1,0-0.2,0c0,0.1,0,0.1,0,0.2c-0.1,0-0.1,0-0.2,0c0,0.1,0,0.1,0,0.2c-0.2,0-0.4,0-0.6,0
						c0,0.2,0,0.4,0,0.5c-0.1,0-0.2,0-0.4,0C62.1,57.3,62.1,56.7,62.1,56z M63,57.1c0-0.2,0-0.5,0-0.7c-0.2,0-0.4,0-0.5,0
						c0,0.2,0,0.5,0,0.7C62.6,57.1,62.8,57.1,63,57.1z"/>
				</g>
			</g>
		</g>
		<g>
			<g>
				<g>
					<path class="st1" d="M55.6,54.9c0,0.1,0,0.2,0,0.4c0.1,0,0.1,0,0.2,0c0,0.1,0,0.1,0,0.2c0.1,0,0.1,0,0.2,0c0,0.2,0,0.4,0,0.5
						c0.1,0,0.1,0,0.2,0c0,0.4,0,0.7,0,1.1c-0.1,0-0.1,0-0.2,0c0,0.2,0,0.4,0,0.5c-0.1,0-0.1,0-0.2,0c0,0.1,0,0.1,0,0.2
						c-0.1,0-0.1,0-0.2,0c0,0.1,0,0.2,0,0.4c-0.1,0-0.2,0-0.4,0c0-0.2,0-0.4,0-0.5c0.1,0,0.1,0,0.2,0c0-0.1,0-0.1,0-0.2
						c0.1,0,0.1,0,0.2,0c0-0.2,0-0.4,0-0.5c0.1,0,0.1,0,0.2,0c0-0.2,0-0.5,0-0.7c-0.1,0-0.1,0-0.2,0c0-0.2,0-0.4,0-0.5
						c-0.1,0-0.1,0-0.2,0c0-0.1,0-0.1,0-0.2c-0.1,0-0.1,0-0.2,0c0-0.2,0-0.4,0-0.5C55.3,54.9,55.4,54.9,55.6,54.9z"/>
				</g>
			</g>
		</g>
		<g>
			<g>
				<g>
					<path class="st1" d="M57.5,57.1c0.2,0,0.4,0,0.5,0c0-0.1,0-0.1,0-0.2c0.1,0,0.2,0,0.4,0c0,0.1,0,0.2,0,0.4c-0.1,0-0.1,0-0.2,0
						c0,0.1,0,0.1,0,0.2c-0.2,0-0.5,0-0.7,0c0-0.1,0-0.1,0-0.2c-0.1,0-0.1,0-0.2,0c0-0.1,0-0.1,0-0.2c-0.1,0-0.1,0-0.2,0
						c0-0.4,0-0.8,0-1.3c0.1,0,0.1,0,0.2,0c0-0.1,0-0.1,0-0.2c0.1,0,0.1,0,0.2,0c0-0.1,0-0.1,0-0.2c0.2,0,0.5,0,0.7,0
						c0,0.1,0,0.1,0,0.2c0.1,0,0.1,0,0.2,0c0,0.1,0,0.2,0,0.4c-0.1,0-0.2,0-0.4,0c0-0.1,0-0.1,0-0.2c-0.2,0-0.4,0-0.5,0
						C57.5,56.2,57.5,56.7,57.5,57.1z"/>
				</g>
			</g>
		</g>
		<g>
			<g>
				<g>
					<path class="st1" d="M61.3,58.6c-0.4,0-0.7,0-1.1,0c0-0.1,0-0.2,0-0.4c0.1,0,0.1,0,0.2,0c0-0.1,0-0.1,0-0.2c0.1,0,0.1,0,0.2,0
						c0-0.1,0-0.1,0-0.2c0.1,0,0.1,0,0.2,0c0-0.1,0-0.1,0-0.2c0.1,0,0.1,0,0.2,0c0-0.2,0-0.4,0-0.5c-0.1,0-0.2,0-0.4,0
						c0,0.1,0,0.2,0,0.4c-0.1,0-0.2,0-0.4,0c0-0.2,0-0.4,0-0.5c0.1,0,0.2,0,0.4,0c0-0.1,0-0.1,0-0.2c0.1,0,0.2,0,0.4,0
						c0,0.1,0,0.1,0,0.2c0.1,0,0.1,0,0.2,0c0,0.1,0,0.1,0,0.2c0.1,0,0.1,0,0.2,0c0,0.2,0,0.4,0,0.5c-0.1,0-0.1,0-0.2,0
						c0,0.1,0,0.1,0,0.2c-0.1,0-0.1,0-0.2,0c0,0.1,0,0.1,0,0.2c-0.1,0-0.1,0-0.2,0c0,0.1,0,0.1,0,0.2c0.2,0,0.4,0,0.5,0
						C61.3,58.3,61.3,58.4,61.3,58.6z"/>
				</g>
			</g>
		</g>
		<g>
			<g>
				<g>
					<path class="st1" d="M41.4,33.3c0,0.3,0,0.6,0,0.9c-0.3,0-0.6,0-0.9,0c0-0.3,0-0.6,0-0.9C40.8,33.3,41.1,33.3,41.4,33.3z"/>
				</g>
			</g>
		</g>
		<g>
			<g>
				<g>
					<path class="st1" d="M54.6,55.6c0,0.1,0,0.1,0,0.2c0.1,0,0.1,0,0.2,0c0,0.1,0,0.1,0,0.2c0.1,0,0.1,0,0.2,0c0,0.4,0,0.7,0,1.1
						c-0.1,0-0.1,0-0.2,0c0,0.1,0,0.1,0,0.2c-0.1,0-0.1,0-0.2,0c0,0.1,0,0.1,0,0.2c-0.1,0-0.2,0-0.4,0c0-0.1,0-0.2,0-0.4
						c0.1,0,0.1,0,0.2,0c0-0.1,0-0.1,0-0.2c0.1,0,0.1,0,0.2,0c0-0.2,0-0.5,0-0.7c-0.1,0-0.1,0-0.2,0c0-0.1,0-0.1,0-0.2
						c-0.1,0-0.1,0-0.2,0c0-0.1,0-0.2,0-0.4C54.4,55.6,54.5,55.6,54.6,55.6z"/>
				</g>
			</g>
		</g>
		<g>
			<g>
				<g>
					<path class="st1" d="M38.1,57.4c-0.1,0-0.2,0-0.4,0c0-0.5,0-1.1,0-1.6c0.1,0,0.2,0,0.4,0C38.1,56.3,38.1,56.9,38.1,57.4z"/>
				</g>
			</g>
		</g>
		<g>
			<g>
				<g>
					<path class="st1" d="M64.8,31.5c0,0.1,0,0.1,0,0.2c0.1,0,0.1,0,0.2,0c0,0.1,0,0.1,0,0.2c-0.1,0-0.1,0-0.2,0c0,0.1,0,0.1,0,0.2
						c-0.1,0-0.1,0-0.2,0c0-0.1,0-0.1,0-0.2c-0.1,0-0.1,0-0.2,0c0-0.1,0-0.1,0-0.2c0.1,0,0.1,0,0.2,0c0-0.1,0-0.1,0-0.2
						C64.7,31.5,64.8,31.5,64.8,31.5z"/>
				</g>
			</g>
		</g>
		<g>
			<g>
				<g>
					<path class="st1" d="M66.1,33.1c0-0.1,0-0.1,0-0.2c-0.1,0-0.1,0-0.2,0c0-0.1,0-0.1,0-0.2c0.1,0,0.1,0,0.2,0c0-0.1,0-0.1,0-0.2
						c0.1,0,0.1,0,0.2,0c0,0.1,0,0.1,0,0.2c0.1,0,0.1,0,0.2,0c0,0.1,0,0.1,0,0.2c-0.1,0-0.1,0-0.2,0c0,0.1,0,0.1,0,0.2
						C66.2,33.1,66.2,33.1,66.1,33.1z"/>
				</g>
			</g>
		</g>
		<g>
			<g>
				<g>
					<path class="st1" d="M49.2,56.7c0-0.2,0-0.4,0-0.5c0.1,0,0.1,0,0.2,0c0,0.2,0,0.4,0,0.5C49.3,56.7,49.2,56.7,49.2,56.7z"/>
				</g>
			</g>
		</g>
		<g>
			<g>
				<g>
					<path class="st1" d="M33.7,57.3c0-0.4,0-0.8,0-1.3c1,0,2.1,0,3.1,0c0,0.4,0,0.8,0,1.3C35.8,57.3,34.8,57.3,33.7,57.3z"/>
				</g>
			</g>
		</g>
	</g>
</g>
</svg>
