<?xml version="1.0" encoding="utf-8"?>
<!-- Generator: Adobe Illustrator 23.0.4, SVG Export Plug-In . SVG Version: 6.00 Build 0)  -->
<svg version="1.1" id="Layer_1" xmlns="http://www.w3.org/2000/svg" xmlns:xlink="http://www.w3.org/1999/xlink" x="0px" y="0px"
	 viewBox="0 0 100 100" style="enable-background:new 0 0 100 100;" xml:space="preserve">
<g>
	<path d="M86.7,0H13.3C5.9,0,0,5.9,0,13.3v73.5C0,94.1,5.9,100,13.3,100h73.5c7.3,0,13.3-5.9,13.3-13.3V13.3C100,5.9,94.1,0,86.7,0z
		 M97.4,86.7c0,5.9-4.8,10.6-10.6,10.6H13.3c-5.9,0-10.6-4.8-10.6-10.6V13.3c0-5.9,4.8-10.6,10.6-10.6h73.5
		c5.9,0,10.6,4.8,10.6,10.6V86.7z"/>
	<path d="M70.7,25.5H29.5c-3.4,0-6.2,2.8-6.2,6.2v33.9c0,3.4,2.8,6.2,6.2,6.2c3.4,0,6.2-2.8,6.2-6.2v-0.6c0-1.9,1.6-3.5,3.5-3.5
		h31.5c3.4,0,6.2-2.8,6.2-6.2V31.7C76.8,28.3,74.1,25.5,70.7,25.5z M74.2,55.3c0,1.9-1.6,3.5-3.5,3.5H39.2c-3.4,0-6.2,2.8-6.2,6.2
		v0.6c0,1.9-1.6,3.5-3.5,3.5c-1.9,0-3.5-1.6-3.5-3.5V31.7c0-1.9,1.6-3.5,3.5-3.5h41.2c1.9,0,3.5,1.6,3.5,3.5V55.3z"/>
	<circle cx="41.2" cy="66.9" r="2.5"/>
	<circle cx="50.1" cy="66.9" r="2.5"/>
	<polygon points="33.6,40.9 35.9,40.9 35.9,38.3 40.9,38.3 35.4,52.7 37.9,52.7 43.4,38.3 43.4,36.2 33.6,36.2 	"/>
	<path d="M54.5,42.5c0.2-0.5,0.4-1.1,0.4-1.8c0-1.4-0.4-2.5-1.3-3.4c-0.9-0.8-2-1.3-3.4-1.3c-1.4,0-2.5,0.4-3.4,1.3
		c-0.9,0.9-1.3,2-1.3,3.4h2.4c0-0.9,0.2-1.5,0.7-1.9c0.5-0.4,1-0.6,1.7-0.6c0.8,0,1.3,0.2,1.8,0.7c0.4,0.5,0.6,1.1,0.6,1.8
		c0,0.8-0.3,1.5-0.9,2.2l-6.3,7.7v2.1h9.6v-2.1h-6.7l5.1-6.3C53.9,43.6,54.3,43,54.5,42.5z"/>
	<path d="M64.7,44.2c1.3-0.8,2-2,2-3.5c0-1.4-0.5-2.5-1.4-3.3c-0.9-0.8-2.1-1.3-3.4-1.3s-2.5,0.4-3.4,1.3c-0.9,0.8-1.4,1.9-1.4,3.3
		c0,1.6,0.7,2.7,2,3.5c-1.5,0.9-2.3,2.2-2.3,3.9c0,1.4,0.5,2.6,1.4,3.5c1,0.9,2.2,1.3,3.6,1.3c1.4,0,2.7-0.4,3.6-1.3
		c1-0.9,1.5-2,1.5-3.5C67,46.4,66.2,45.1,64.7,44.2z M60.1,38.9c0.5-0.5,1-0.7,1.7-0.7s1.3,0.2,1.8,0.7c0.5,0.5,0.7,1.1,0.7,1.8
		s-0.2,1.3-0.7,1.8c-0.5,0.5-1,0.7-1.8,0.7s-1.3-0.2-1.7-0.7c-0.5-0.5-0.7-1.1-0.7-1.8S59.7,39.4,60.1,38.9z M63.8,49.9
		c-0.5,0.5-1.2,0.8-1.9,0.8s-1.4-0.3-1.9-0.8c-0.5-0.5-0.8-1.2-0.8-1.9c0-0.8,0.3-1.4,0.8-2c0.5-0.5,1.2-0.8,1.9-0.8
		s1.4,0.3,1.9,0.8c0.5,0.5,0.8,1.2,0.8,2C64.6,48.8,64.3,49.4,63.8,49.9z"/>
</g>
</svg>
