<?xml version="1.0" encoding="utf-8"?>
<!-- Generator: Adobe Illustrator 27.8.1, SVG Export Plug-In . SVG Version: 6.00 Build 0)  -->
<svg version="1.1" id="Layer_1" xmlns="http://www.w3.org/2000/svg" xmlns:xlink="http://www.w3.org/1999/xlink" x="0px" y="0px"
	 viewBox="0 0 100 100" style="enable-background:new 0 0 100 100;" xml:space="preserve">
<style type="text/css">
	.st0{fill:#202020;}
	.st1{fill:#000014;}
</style>
<g>
	<g>
		<g>
			<g>
				<path class="st0" d="M87.7,99.1H12.3c-6,0-11-4.9-11-11V12.6c0-6,4.9-11,11-11h75.5c6,0,11,4.9,11,11v75.5
					C98.7,94.2,93.8,99.1,87.7,99.1z M12.3,3.3C7.1,3.3,3,7.5,3,12.6v75.5c0,5.1,4.2,9.3,9.3,9.3h75.5c5.1,0,9.3-4.2,9.3-9.3V12.6
					c0-5.1-4.2-9.3-9.3-9.3H12.3z"/>
			</g>
		</g>
	</g>
	<g>
		<g>
			<g>
				<path class="st0" d="M70.4,67.4H29.6c-0.5,0-0.8-0.4-0.8-0.8V25.8c0-0.5,0.4-0.8,0.8-0.8h40.8c0.5,0,0.8,0.4,0.8,0.8v40.8
					C71.3,67.1,70.9,67.4,70.4,67.4z M30.5,65.8h39.1V26.6H30.5V65.8z"/>
			</g>
		</g>
	</g>
	<g>
		<g>
			<g>
				<g>
					<g>
						<path class="st1" d="M26.2,88.3v-0.9c-0.8,0.8-1.5,1.1-2.9,1.1c-1.4,0-2.2-0.2-2.8-0.9c-0.4-0.4-0.7-1.1-0.7-1.8
							c0-1.7,1.2-2.7,3.3-2.7h3V82c0-1.5-0.7-2.3-2.7-2.3c-1.3,0-2,0.3-2.6,1.2l-0.7-0.6c0.8-1.1,1.8-1.4,3.3-1.4
							c2.5,0,3.6,1.1,3.6,3.1v6.4H26.2z M26.2,83.8h-2.9c-1.6,0-2.4,0.6-2.4,1.9c0,1.2,0.7,1.8,2.5,1.8c0.9,0,1.7-0.1,2.3-0.7
							c0.4-0.3,0.5-0.9,0.5-1.8V83.8z"/>
					</g>
				</g>
			</g>
			<g>
				<g>
					<g>
						<path class="st1" d="M33.9,79.7c-1.6,0-2.5,1.3-2.5,2.8v5.8h-1v-9.4h1v1.2c0.5-0.9,1.6-1.4,2.8-1.4c0.9,0,1.6,0.2,2.3,0.9
							l-0.7,0.7C35.1,79.8,34.7,79.7,33.9,79.7z"/>
					</g>
				</g>
			</g>
			<g>
				<g>
					<g>
						<path class="st1" d="M44.1,88.3v-0.9c-0.8,0.8-1.5,1.1-2.9,1.1c-1.4,0-2.2-0.2-2.8-0.9c-0.4-0.4-0.7-1.1-0.7-1.8
							c0-1.7,1.2-2.7,3.3-2.7h3V82c0-1.5-0.7-2.3-2.7-2.3c-1.3,0-2,0.3-2.6,1.2l-0.7-0.6c0.8-1.1,1.8-1.4,3.3-1.4
							c2.5,0,3.6,1.1,3.6,3.1v6.4H44.1z M44.1,83.8h-2.9c-1.6,0-2.4,0.6-2.4,1.9c0,1.2,0.7,1.8,2.5,1.8c0.9,0,1.7-0.1,2.3-0.7
							c0.4-0.3,0.5-0.9,0.5-1.8V83.8z"/>
					</g>
				</g>
			</g>
			<g>
				<g>
					<g>
						<path class="st1" d="M54.9,88.3v-5.8c0-1.8-0.9-2.8-2.6-2.8c-1.7,0-2.7,1-2.7,2.8v5.8h-1v-9.4h1V80c0.7-0.8,1.6-1.2,2.8-1.2
							c1,0,1.9,0.3,2.5,0.9c0.6,0.6,1,1.5,1,2.6v6H54.9z"/>
					</g>
				</g>
			</g>
			<g>
				<g>
					<g>
						<path class="st1" d="M60,83.8c0,2.4,1.1,3.7,3.1,3.7c1.1,0,1.8-0.3,2.6-1.1l0.7,0.6c-1,1-1.8,1.4-3.4,1.4c-2.6,0-4-1.7-4-4.8
							c0-3,1.4-4.8,3.8-4.8s3.8,1.7,3.8,4.6v0.4H60z M65.2,81.2c-0.4-1-1.3-1.6-2.4-1.6c-1.1,0-2,0.6-2.4,1.6
							c-0.3,0.6-0.3,0.9-0.3,1.8h5.5C65.5,82.1,65.5,81.8,65.2,81.2z"/>
					</g>
				</g>
			</g>
			<g>
				<g>
					<g>
						<path class="st1" d="M72.3,88.3c-1.5,0-2.3-1-2.3-2.5v-6.2h-1.3v-0.7H70v-3h1v3h2.1v0.7H71v6.2c0,1,0.4,1.6,1.4,1.6h0.7v0.9
							H72.3z"/>
					</g>
				</g>
			</g>
		</g>
		<g>
			<path class="st1" d="M76.1,88.2v-2l4.6-5.4c0.5-0.5,0.6-0.9,0.6-1.5c0-0.9-0.5-1.5-1.5-1.5c-0.7,0-1.5,0.4-1.5,1.6h-2.3
				c0-2.3,1.7-3.6,3.8-3.6c2.2,0,3.8,1.4,3.8,3.6c0,1.2-0.5,1.8-1.3,2.8l-3.5,4h4.8v2H76.1z"/>
		</g>
	</g>
	<g>
		<g>
			<g>
				<polygon points="58.1,32.7 57.9,32.7 57.9,32.9 57.7,32.9 57.7,33.1 57.9,33.1 57.9,33.3 58.1,33.3 58.1,33.1 58.3,33.1 
					58.3,32.9 58.1,32.9 				"/>
				<polygon points="56.7,31.8 56.5,31.8 56.5,31.6 56.3,31.6 56.3,31.8 56.1,31.8 56.1,32 56.3,32 56.3,32.2 56.5,32.2 56.5,32 
					56.7,32 				"/>
				<path d="M59.1,31.8v-0.4h-0.2V31h-0.2v-0.4h-0.2v-0.2h-0.2V30h-0.2v-0.2H58v-0.4h-0.2v-0.2h-0.2v-0.4H57v0.4h-0.2v0.2h-0.2v0.4
					h-0.2V30h-0.2v0.4H56v0.2h-0.2V31h-0.2v0.4h-0.2v0.4h-0.2V33h0.2v0.4h0.2v0.4h0.2v0.2H56v0.2h0.2v0.2h0.4v0.2H58v-0.2h0.4v-0.2
					h0.2v-0.2h0.2v-0.2H59v-0.4h0.2V33h0.2v-1.2H59.1z M56.1,32.4v-0.2h-0.2v-0.6h0.2v-0.2h0.6l0,0.2h0.2v0.6h-0.2v0.2H56.1z
					 M57.3,32.7h-0.2V33v0.2h-0.2v0.2h-0.2v0.2h-0.2v-0.4h0.2V33h0.2v-0.4h0.2v-0.4h0.2V32h0.2v-0.4h0.2v-0.2h0.2v0.2v0.2h-0.2V32
					v0.2h-0.2v0.2h-0.2V32.7z M58.5,33.3h-0.2v0.2h-0.6v-0.2h-0.2v-0.6h0.2v-0.2h0.6l0,0.2h0.2V33.3z"/>
			</g>
			
				<image style="overflow:visible;" width="158" height="127" xlink:href="177CADB5D7D7CB08.png"  transform="matrix(0.16 0 0 0.1608 35.6183 21.98)">
			</image>
		</g>
		
			<image style="overflow:visible;" width="257" height="208" xlink:href="177CADB5D7D7CB09.png"  transform="matrix(0.16 0 0 0.1608 26.4989 32.1104)">
		</image>
		<path d="M64.8,63.4c-0.1,0-0.1,0-0.2,0c0,0.1,0,0.1,0,0.2c-0.1,0-0.1,0-0.2,0c0,0.1,0,0.1,0,0.2c-0.1,0-1,0-1.2,0
			c0-0.8,0-1.5,0-2.3c0.1,0,1,0,1.2,0c0,0.1,0,0.1,0,0.2c0.1,0,0.1,0,0.2,0c0,0.1,0,0.1,0,0.2c0.1,0,0.1,0,0.2,0c0,0,0,0.1,0,0.1
			c0,0.2,0,0.3,0,0.5c-0.1,0-0.1,0-0.2,0c0,0.1,0,0.2,0,0.4c0.1,0,0.1,0,0.2,0C64.8,63,64.8,63.2,64.8,63.4z M64.4,61.8
			c-0.3,0-0.5,0-0.8,0c0,0.2,0,0.4,0,0.6c0.3,0,0.5,0,0.8,0C64.4,62.2,64.4,62,64.4,61.8z M64.4,62.8c-0.3,0-0.5,0-0.8,0
			c0,0.2,0,0.4,0,0.6c0.3,0,0.5,0,0.8,0C64.4,63.2,64.4,63,64.4,62.8z"/>
		<path d="M61.8,63.6c-0.1,0-0.1,0-0.2,0c0-0.1,0-0.1,0-0.2c-0.1,0-0.1,0-0.2,0c0-0.1,0-1.4,0-1.6c0.1,0,0.1,0,0.2,0
			c0-0.1,0-0.1,0-0.2c0.1,0,0.1,0,0.2,0c0-0.1,0-0.1,0-0.2c0.1,0,0.6,0,0.8,0c0,0.1,0,0.1,0,0.2c0.1,0,0.1,0,0.2,0
			c0,0.1,0,0.1,0,0.2c0.1,0,0.1,0,0.2,0c0,0.1,0,1.4,0,1.6c-0.1,0-0.1,0-0.2,0c0,0.1,0,0.1,0,0.2c-0.1,0-0.1,0-0.2,0
			c0,0.1,0,0.1,0,0.2c-0.3,0-0.5,0-0.8,0C61.8,63.7,61.8,63.6,61.8,63.6z M62.6,63.2c0-0.2,0-1.1,0-1.2c-0.1,0-0.1,0-0.2,0
			c0-0.1,0-0.1,0-0.2c-0.1,0-0.3,0-0.4,0c0,0.1,0,0.1,0,0.2c-0.1,0-0.1,0-0.2,0c0,0.4,0,0.8,0,1.2c0.1,0,0.1,0,0.2,0
			c0,0.1,0,0.1,0,0.2c0.1,0,0.3,0,0.4,0c0-0.1,0-0.1,0-0.2C62.5,63.2,62.6,63.2,62.6,63.2z"/>
		<path d="M66.9,62.8c0-0.1,0-0.1,0-0.2c-0.1,0-0.1,0-0.2,0c0-0.3,0-0.5,0-0.8c0.1,0,0.1,0,0.2,0c0-0.1,0-0.1,0-0.2
			c0.1,0,0.1,0,0.2,0c0-0.1,0-0.1,0-0.2c0.3,0,0.5,0,0.8,0c0,0.1,0,0.1,0,0.2c0.1,0,0.1,0,0.2,0c0,0.1,0,0.1,0,0.2
			c0.1,0,0.1,0,0.2,0c0,0.4,0,0.8,0,1.2c-0.1,0-0.1,0-0.2,0c0,0.1,0,0.2,0,0.4c-0.1,0-0.1,0-0.2,0c0,0.1,0,0.1,0,0.2
			c-0.1,0-0.1,0-0.2,0c0,0.1,0,0.1,0,0.2c-0.1,0-0.4,0-0.6,0c0-0.1,0-0.2,0-0.4c0.1,0,0.2,0,0.4,0c0-0.1,0-0.1,0-0.2
			c0.1,0,0.1,0,0.2,0c0-0.1,0-0.1,0-0.2c-0.2,0-0.4,0-0.6,0c0-0.1,0-0.1,0-0.2C67,62.8,67,62.8,66.9,62.8z M67.7,61.8
			c-0.1,0-0.3,0-0.4,0c0,0.1,0,0.1,0,0.2c-0.1,0-0.1,0-0.2,0c0,0.1,0,0.3,0,0.4c0.1,0,0.1,0,0.2,0c0,0.1,0,0.1,0,0.2
			c0.1,0,0.3,0,0.4,0c0-0.1,0-0.1,0-0.2c0.1,0,0.1,0,0.2,0c0-0.1,0-0.3,0-0.4c-0.1,0-0.1,0-0.2,0C67.7,61.9,67.7,61.9,67.7,61.8z"/>
		<path d="M66.5,62.4c-0.1,0-0.1,0-0.2,0c0,0.1,0,0.2,0,0.4c0.1,0,0.1,0,0.2,0c0,0.1,0,0.4,0,0.6c-0.1,0-0.1,0-0.2,0
			c0,0.1,0,0.1,0,0.2c-0.1,0-0.1,0-0.2,0c0,0.1,0,0.1,0,0.2c-0.1,0-0.6,0-0.8,0c0-0.1,0-0.1,0-0.2c-0.1,0-0.1,0-0.2,0
			c0-0.1,0-0.1,0-0.2c-0.1,0-0.1,0-0.2,0c0-0.1,0-0.2,0-0.4c0.1,0,0.2,0,0.4,0c0,0.1,0,0.1,0,0.2c0.1,0,0.1,0,0.2,0
			c0,0.1,0,0.1,0,0.2c0.1,0,0.2,0,0.4,0c0-0.1,0-0.1,0-0.2c0.1,0,0.1,0,0.2,0c0-0.1,0-0.1,0-0.2c-0.1,0-0.1,0-0.2,0
			c0-0.1,0-0.1,0-0.2c-0.1,0-0.2,0-0.4,0c0-0.1,0-0.3,0-0.4c0.1,0,0.2,0,0.4,0c0-0.1,0-0.1,0-0.2c0.1,0,0.1,0,0.2,0
			c0-0.1,0-0.1,0-0.2c-0.1,0-0.1,0-0.2,0c0-0.1,0-0.1,0-0.2c-0.1,0-0.1,0-0.2,0c-0.1,0-0.1,0-0.2,0c0,0.1,0,0.1,0,0.2
			c-0.1,0-0.1,0-0.2,0c0,0.1,0,0.1,0,0.2c-0.1,0-0.2,0-0.4,0c0-0.1,0-0.2,0-0.4c0.1,0,0.1,0,0.2,0c0-0.1,0-0.1,0-0.2
			c0.1,0,0.1,0,0.2,0c0-0.1,0-0.1,0-0.2c0.3,0,0.5,0,0.8,0c0,0.1,0,0.1,0,0.2c0.1,0,0.1,0,0.2,0c0,0.1,0,0.1,0,0.2
			c0.1,0,0.1,0,0.2,0C66.5,62,66.5,62.2,66.5,62.4z"/>
		<path d="M61.3,61.4c0,0.1,0,0.2,0,0.4c-0.3,0-0.6,0-1,0c0,0.2,0,0.4,0,0.6c0.1,0,0.3,0,0.4,0c0.1,0,0.2,0,0.4,0c0,0.1,0,0.2,0,0.4
			c-0.1,0-0.3,0-0.4,0c-0.1,0-0.2,0-0.4,0c0,0.2,0,0.4,0,0.6c0.3,0,0.6,0,1,0c0,0.1,0,0.3,0,0.4c-0.4,0-0.9,0-1.3,0
			c0-0.1,0-2.1,0-2.3C60.4,61.4,60.8,61.4,61.3,61.4z"/>
		<path d="M36.7,61.2c0,0.1,0,0.1,0,0.2c0.1,0,0.1,0,0.2,0c0,0.1,0,2.4,0,2.5c-0.1,0-0.1,0-0.2,0c0,0.1,0,0.1,0,0.2
			c-0.1,0-4.3,0-4.5,0c0-0.1,0-0.1,0-0.2c-0.1,0-0.1,0-0.2,0c0-0.8,0-1.7,0-2.5c0.1,0,0.1,0,0.2,0c0-0.1,0-0.1,0-0.2
			C33.8,61.2,35.2,61.2,36.7,61.2z M32.7,63.8c1.2,0,2.5,0,3.7,0c0-0.1,0-0.1,0-0.2c0.1,0,0.1,0,0.2,0c0-0.6,0-1.2,0-1.7
			c-0.1,0-0.1,0-0.2,0c0-0.1,0-0.1,0-0.2c-0.1,0-3.6,0-3.7,0c0,0.1,0,0.1,0,0.2c-0.1,0-0.1,0-0.2,0c0,0.6,0,1.2,0,1.7
			c0.1,0,0.1,0,0.2,0C32.6,63.6,32.7,63.7,32.7,63.8z"/>
		<path d="M37.5,63.6c-0.1,0-0.2,0-0.4,0c0-0.6,0-1.2,0-1.8c0.1,0,0.2,0,0.4,0C37.5,62.4,37.5,63,37.5,63.6z"/>
		<path d="M34.3,63.4c-0.5,0-1,0-1.4,0c0-0.5,0-0.9,0-1.3c0.2,0,1.1,0,1.4,0C34.3,62.5,34.3,62.9,34.3,63.4z"/>
		
			<image style="overflow:visible;" width="117" height="124" xlink:href="177CADB5D7D7CB0F.png"  transform="matrix(0.16 0 0 0.1608 53.697 34.2008)">
		</image>
	</g>
</g>
</svg>
