<svg width="31" height="30" viewBox="0 0 31 30" fill="none" xmlns="http://www.w3.org/2000/svg">
  <g id="icon/Radiation_collapse">
    <path id="Vector (Stroke)" fill-rule="evenodd" clip-rule="evenodd"  fill="#f0f" d="M22.3198 3.7947C22.0707 3.62462 21.8152 3.46325 21.5536 3.31105C21.5444 3.30566 21.5351 3.30028 21.5258 3.29491L21.5301 3.28751L21.5238 3.29376C21.5245 3.29415 21.5252 3.29453 21.5258 3.29491L17.5769 10.1305C18.9718 10.9374 19.9038 12.4386 19.9038 14.165H27.8039C27.8039 13.8496 27.7922 13.537 27.7694 13.2275C27.4797 9.30652 25.3876 5.88937 22.3198 3.7947ZM26.8291 13.2275C26.5435 9.6547 24.6402 6.53913 21.8494 4.60894L18.818 9.85636C19.8276 10.6933 20.5366 11.8771 20.7635 13.2275H26.8291ZM14.4794 15.5079C14.7044 15.6398 14.9669 15.7169 15.2501 15.7169C15.5294 15.7169 15.7879 15.6418 16.0257 15.505C16.4919 15.2341 16.8021 14.7301 16.8021 14.1587C16.8021 13.5873 16.4919 13.0832 16.0255 12.8123C15.7889 12.6762 15.5243 12.6005 15.2501 12.6005C14.9719 12.6005 14.7033 12.6783 14.4794 12.8095L14.4756 12.8118C14.2117 12.9648 13.998 13.1888 13.8607 13.4565V13.626L13.8168 13.5498C13.7362 13.7371 13.6918 13.9428 13.6918 14.1587C13.6918 14.731 14.0036 15.232 14.4756 15.5057L14.4794 15.5079ZM13.2843 12.6267C12.953 13.0484 12.7543 13.579 12.7543 14.1587C12.7543 15.0844 13.261 15.8851 14.0053 16.3167C14.3681 16.5293 14.7935 16.6544 15.2501 16.6544C15.7067 16.6544 16.1258 16.5293 16.4948 16.3167C17.2392 15.8851 17.7396 15.0782 17.7396 14.1587C17.7396 13.2392 17.2392 12.4323 16.4948 12.0007C16.1258 11.7881 15.7004 11.663 15.2501 11.663C14.7997 11.663 14.3681 11.7881 14.0053 12.0007C13.9561 12.0293 13.9078 12.0595 13.8607 12.0912C13.6418 12.2387 13.4471 12.4195 13.2843 12.6267ZM8.97631 3.28125C8.97629 3.28127 8.97634 3.28124 8.97631 3.28125C8.70508 3.43812 8.44017 3.60486 8.18224 3.78091C5.1134 5.87547 3.02054 9.29321 2.73079 13.2149C2.70793 13.5244 2.69629 13.8371 2.69629 14.1524H10.5964C10.5964 12.7716 11.201 11.5279 12.1578 10.6735C12.3409 10.51 12.5369 10.3608 12.744 10.2276C12.7994 10.192 12.8555 10.1575 12.9125 10.1242C12.9152 10.1227 12.9178 10.1211 12.9205 10.1195L12.9232 10.1242V10.118C12.9223 10.1185 12.9214 10.119 12.9205 10.1195L8.97631 3.28125ZM11.6811 9.84699L8.65208 4.59551C5.86057 6.52562 3.95667 9.64162 3.6711 13.2149H9.7374C9.9655 11.8681 10.6761 10.6839 11.6811 9.84699ZM12.9232 18.1932L8.97006 25.0362C8.98067 25.0423 8.9913 25.0484 9.00193 25.0546C9.26177 25.2042 9.52753 25.3447 9.79876 25.4758C11.4462 26.272 13.2957 26.7188 15.2501 26.7188C17.204 26.7188 19.0486 26.2677 20.6943 25.4744C20.9769 25.3382 21.2535 25.1919 21.5238 25.0362L17.5771 18.1934C17.5745 18.1949 17.5718 18.1962 17.5692 18.1977C16.8891 18.589 16.0913 18.8187 15.2501 18.8187C14.428 18.8187 13.6474 18.6053 12.9776 18.2246C12.9594 18.2142 12.9412 18.2038 12.9232 18.1932ZM13.3042 19.4079L10.2691 24.6617C11.7766 25.3791 13.4651 25.7812 15.2501 25.7812C17.0327 25.7812 18.7167 25.3757 20.2246 24.6599L17.1941 19.4058C16.5885 19.631 15.9315 19.7562 15.2501 19.7562C14.571 19.7562 13.9131 19.6346 13.3042 19.4079Z"/>
  </g>
</svg>
