<?xml version="1.0" encoding="utf-8"?>
<!-- Generator: Adobe Illustrator 23.0.4, SVG Export Plug-In . SVG Version: 6.00 Build 0)  -->
<svg version="1.1" id="Layer_1" xmlns="http://www.w3.org/2000/svg" xmlns:xlink="http://www.w3.org/1999/xlink" x="0px" y="0px"
	 viewBox="0 0 100 100" style="enable-background:new 0 0 100 100;" xml:space="preserve">
<g>
	<path d="M7.7,12.2H9V10h10.5c2.4,0,4.2-1.3,4.2-3.8V4.8h-1.5v1.2c0,1.7-1,2.4-2.7,2.4H8.9V4.8H7.6v3.6h-5V10h5.1V12.2z"/>
	<path d="M15.5,28.7c5.4,0,8.2-2.4,8.2-6.8c0-2.7-0.8-4.1-2.4-5.8l-1,1.3c1.4,1.3,1.9,2.4,1.9,4.4c0,3.5-2.2,5.2-6.3,5.2V15.9h-0.8
		c-4.9,0-7.8,2.4-7.8,6.4S10.4,28.7,15.5,28.7z M11.6,18c1-0.4,1.5-0.4,3.1-0.5v9.5c-1.7,0-2-0.1-3.1-0.5c-1.7-0.6-2.7-2.3-2.7-4.1
		C8.9,20.4,9.9,18.9,11.6,18z"/>
	<path d="M13.9,35.6h9.9V34H13.5c-1.9,0-3.5,0.5-4.5,1.7c-1,1-1.5,2.4-1.5,4.2c0,2,0.6,3.6,2,4.7H7.6v1.7h15.9v-1.7h-9.9
		c-3.1,0-4.7-1.7-4.5-4.6C9.1,37.2,10.8,35.6,13.9,35.6z"/>
	<path d="M9,66.7c-1.2,1.2-1.5,2.3-1.5,3.8c0,1.8,0.8,3.7,2.3,4.6H7.6v1.7h16v-1.7h-9.9c-2.6,0-4.9-1.5-4.7-4.1
		c0-1.4,0.3-2.2,1.3-3.1L9,66.7z"/>
	<polygon points="89.4,67.1 89.4,50.1 73.4,50.1 73.4,67 54.3,67 85.5,4.6 67.4,4.6 36.3,67 36.3,82.7 73.4,82.7 73.4,95.7 
		89.3,95.7 89.3,82.7 97.6,82.7 97.7,82.7 97.7,67.1 	"/>
	<path d="M23.6,54.3v-1.7H12.7c-3.3,0-5.2,1.9-5.2,6.1c0,2.6,0.5,4.2,2.4,5.6l1-1.3c-1.5-1-2-2-2-4.4c0-3.2,1.4-4.5,4-4.5h1.8v5.1
		c0,3.5,1.7,5.5,4.6,5.5c1.2,0,2.3-0.4,3.1-1.2c1-1,1.4-2.3,1.5-4.6c0-2.3-0.4-3.5-1.8-4.9H23.6z M22.2,59.2c0,2.9-0.9,4.2-3.1,4.2
		s-3.2-1.4-3.2-4.1v-5h2c1.4,0,2.4,0.3,2.9,0.9C22.1,56.4,22.2,57.8,22.2,59.2z"/>
	<path d="M23.6,84.9v-1.7H12.7c-3.3,0-5.2,1.9-5.2,6.1c0,2.6,0.5,4.2,2.4,5.6l1-1.3c-1.5-1-2-2-2-4.4c0-3.2,1.4-4.5,4-4.5h1.8V90
		c0,3.5,1.7,5.5,4.6,5.5c1.2,0,2.3-0.4,3.1-1.2c1-1,1.4-2.3,1.5-4.6c0-2.3-0.4-3.5-1.8-4.9H23.6z M22.2,89.8c0,2.9-0.9,4.2-3.1,4.2
		s-3.2-1.4-3.2-4.1v-5h2c1.4,0,2.4,0.3,2.9,0.9C22.1,86.9,22.2,88.4,22.2,89.8z"/>
</g>
</svg>
