<svg enable-background="new 0 0 100 100" viewBox="0 0 100 100" xmlns="http://www.w3.org/2000/svg"><path d="m50 6-31.7 54.8h63.4c-3-5-31.7-54.8-31.7-54.8z" fill="#fff"/><path d="m50 3.9-34 59.1h68.2c-3.3-5.5-34.2-59.1-34.2-59.1zm22.8 54.5c-1.3 0-2.4-1-2.4-2.3l-30-17.2c-.5.3-1.1.5-1.7.5-.1 0-.2 0-.3 0l-8.9 15.3c.2.3.3.7.3 1.2 0 1.3-1.1 2.4-2.4 2.4s-2.4-1.1-2.4-2.4 1-2.4 2.3-2.4l8.9-15.4c-.4-.5-.6-1.2-.6-1.8 0-1.7 1.4-3.1 3.1-3.1h.3l9-15.3c-.2-.3-.3-.7-.3-1.2 0-1.3 1.1-2.4 2.4-2.4s2.4 1.1 2.4 2.4-1 2.4-2.3 2.4l-8.6 15 13.9-4.7c.2-1 1.2-1.8 2.3-1.8 1.3 0 2.4 1.1 2.4 2.4s-1.1 2.4-2.4 2.4c-.6 0-1.1-.2-1.5-.5l-13.1 4.5 20.5 5.1c.4-.4 1-.7 1.7-.7 1.3 0 2.4 1.1 2.4 2.4s-1.1 2.4-2.4 2.4c-1.1 0-2-.7-2.3-1.7l-15.8-3.9 24.4 14c.3-.2.7-.3 1.2-.3 1.4 0 2.5 1.1 2.5 2.5-.2 1.2-1.2 2.2-2.6 2.2z" fill="#e21a1a"/><g fill="#070707"><path d="m14.8 95.9v-1.6c-1.4 1.4-2.7 1.8-5 1.8-2.4 0-3.8-.4-4.8-1.5-.8-.8-1.2-2-1.2-3.2 0-3 2.1-4.7 5.7-4.7h5.3v-1.8c0-2.6-1.3-4-4.6-4-2.3 0-3.4.6-4.5 2.1l-1.3-1.1c1.4-1.9 3.1-2.5 5.7-2.5 4.3 0 6.3 1.9 6.3 5.3v11.2zm0-7.7h-5.1c-2.8 0-4.2 1.1-4.2 3.3s1.3 3.2 4.3 3.2c1.5 0 2.9-.1 4.1-1.3.6-.6.9-1.6.9-3.1z"/><path d="m28.2 81c-2.8 0-4.4 2.3-4.4 4.9v10h-1.7v-16.3h1.7v2.2c.9-1.5 2.8-2.4 4.8-2.4 1.6 0 2.7.4 3.9 1.6l-1.3 1.3c-.9-1-1.7-1.3-3-1.3z"/><path d="m45.8 95.9v-1.6c-1.4 1.4-2.7 1.8-5 1.8-2.4 0-3.8-.4-4.8-1.5-.8-.8-1.2-2-1.2-3.2 0-3 2.1-4.7 5.7-4.7h5.3v-1.8c0-2.6-1.3-4-4.6-4-2.3 0-3.4.6-4.5 2.1l-1.3-1.1c1.4-1.9 3.1-2.5 5.7-2.5 4.3 0 6.3 1.9 6.3 5.3v11.2zm0-7.7h-5.1c-2.8 0-4.2 1.1-4.2 3.3s1.3 3.2 4.3 3.2c1.5 0 2.9-.1 4.1-1.3.6-.6.9-1.6.9-3.1z"/><path d="m64.6 95.9v-10.1c0-3.1-1.6-4.9-4.5-4.9s-4.6 1.8-4.6 4.9v10.1h-1.7v-16.3h1.7v1.9c1.2-1.4 2.8-2.1 4.8-2.1 1.8 0 3.2.5 4.3 1.6s1.7 2.6 1.7 4.5v10.4z"/><path d="m73.4 88.2c0 4.2 1.8 6.4 5.3 6.4 1.9 0 3.1-.6 4.5-2l1.3 1c-1.7 1.7-3.2 2.5-5.9 2.5-4.5 0-6.9-2.9-6.9-8.4 0-5.3 2.4-8.4 6.5-8.4s6.5 2.9 6.5 7.9v.8h-11.3zm9-4.5c-.7-1.7-2.3-2.7-4.2-2.7s-3.4 1-4.2 2.7c-.4 1-.5 1.5-.6 3.1h9.6c-.1-1.6-.1-2.1-.6-3.1z"/><path d="m94.7 95.9c-2.6 0-3.9-1.8-3.9-4.3v-10.7h-2.2v-1.3h2.2v-5.2h1.7v5.2h3.7v1.3h-3.7v10.8c0 1.7.8 2.7 2.5 2.7h1.2v1.5z"/></g></svg>