<svg fill="none" height="30" viewBox="0 0 31 30" width="31" xmlns="http://www.w3.org/2000/svg" xmlns:xlink="http://www.w3.org/1999/xlink">
  <clipPath id="a">
    <path d="m6.7041 1.40625h22.7797v27.1875h-22.7797z"/>
  </clipPath>
  <g clip-path="url(#a)">
    <path  fill="currentColor" d="m20.4028 27.6178c-1.6409.0005-3.2818.0005-4.9227.0005-2.3422 0-4.6845 0-7.02674-.001-.13521 0-.30157.0258-.39874-.0407-.14101-.0967-.28783-.2509-.33061-.4083-.06073-.2239.09559-.3871.31952-.4473.10774-.029.22392-.0333.33642-.0333 3.72275-.001 7.44605-.001 11.16885 0-.2292-.31-.4288-.6437-.5941-.996h-8.0994c.1104-.084.1658-.1331.2276-.1727 1.3958-.8936 2.7933-1.7851 4.1875-2.6813.1426-.0914.2519-.1405.422-.0264.9691.6506 1.9419 1.295 2.9147 1.9398-.1167-.4251-.1874-.8693-.2059-1.3267-.7869-.5212-1.5728-1.0441-2.356-1.5711-.3855-.2593-.6839-.2652-1.0784-.008-1.8453 1.2058-3.7091 2.384-5.56651 3.5712-.08503.0544-.17217.1041-.31741.1918-.00897-1.2813.07764-2.496.62003-3.6093.23765-.488.60259-.9348.98499-1.3272.6665-.6828 1.3974-1.3023 2.0892-1.962.3285-.3131.6433-.6443.9385-.9897.6781-.7932 1.1793-1.6694 1.182-2.7436h1.203c.0212 1.4117.8366 2.4521 1.7952 3.4017.5011.497 1.0113.9865 1.5326 1.4629.1869-.2725.3956-.5281.6242-.7653-.358-.3253-.7098-.657-1.0446-1.0045-.5572-.5777-1.099-1.1861-1.5443-1.8505-.5217-.779-.498-1.6488-.0047-2.449.2957-.4795.6448-.9416 1.0409-1.3414.7848-.7906 1.6045-1.5485 2.4363-2.2905 1.1719-1.04515 1.6847-2.3961 1.8669-3.90232.0777-.6401.0967-1.28705.1426-1.93243.0196-.00792.0396-.01954.0613-.02376.8191-.14788 1.3599-.79061 1.2934-1.53738-.0692-.79114-.6824-1.33564-1.5284-1.33617-4.8472-.00264-9.6944-.00158-14.54151-.00105-.06813 0-.13679.00105-.20492.00475-.83127.047-1.47083.89623-1.28705 1.70955.16055.70981.63587 1.06946 1.35993 1.18935 0 .20121-.00158.40401 0 .60682.02007 2.28679.67284 4.26833 2.54085 5.76984.9073.7293 1.7148 1.597 2.4859 2.4737.3507.3987.5878.9506.724 1.473.2176.837-.1478 1.5917-.6981 2.1869-.8778.9507-1.7962 1.8712-2.7632 2.7299-1.1075.9829-1.85797 2.1437-2.0877 3.6066-.12992.8276-.18115 1.6678-.27199 2.5429-.98496.2013-1.51414.9612-1.26222 1.8538.18431.6538.73304 1.0393 1.50094 1.0393 4.55457.0016 9.10917.0011 13.66377.0006-.5604-.2461-1.0753-.5768-1.5285-.976zm-12.38885-24.35887c-.12886-.11407-.27779-.28677-.28043-.43781-.00264-.13151.16055-.30421.29469-.38924.11038-.06971.28519-.04805.43148-.04858 2.35391-.00212 4.70721-.00159 7.06111-.00159 2.3538 0 4.6845 0 7.0267.00106.1352 0 .301-.02746.3993.03802.142.09507.3285.26565.3253.39927-.0042.15527-.1748.32638-.31.44996-.0666.06127-.2165.0412-.329.0412-4.7527.00158-9.5053.00158-14.25844 0-.12305 0-.28413.01531-.36071-.05229zm1.39373 3.98209c-.24875-.95327-.35384-1.91711-.31635-2.92636h12.82507c.0364 1.11488-.0755 2.18804-.4246 3.24957-.1167 0-.2181 0-.3195 0-3.7762 0-7.5523-.00264-11.32838.00634-.26143.00053-.36917-.07077-.43677-.32902zm3.09692 3.78298c-.7272-.6882-1.4587-1.37102-2.1848-2.06023-.1036-.09823-.1854-.21864-.32642-.38817h11.01202c-.1257.15632-.2076.28519-.3153.38764-.8323.79167-1.6737 1.57486-2.5044 2.36816-.6686.6385-1.2659 1.3303-1.7132 2.1521-.3819.7003-1.5517.7241-1.9203.0322-.5181-.9733-1.2612-1.747-2.0476-2.4912z"/>
  </g>
  <path fill="currentColor" d="m24.4191 25.0142c-.3404 0-.6632-.0908-.938-.2521l-1.5936 2.7585c.7438.4312 1.6087.6783 2.5316.6783.9228 0 1.7852-.2497 2.529-.6783l-1.591-2.7585c-.2749.1588-.5976.2521-.938.2521zm2.5315-6.2609-1.5935 2.7585c.5623.3253.938.9305.938 1.6264h3.1846c0-1.8735-1.0187-3.5074-2.5316-4.3824zm-3.0333 5.2523c.1462.0857.3177.1362.5018.1362.184 0 .353-.0505.5017-.1362.3001-.174.5018-.4993.5018-.8699 0-.3707-.2017-.6959-.5018-.8699-.1487-.0858-.3202-.1362-.5017-.1362-.1816 0-.3556.0504-.5018.1362-.3001.174-.5043.4967-.5043.8699s.2042.6959.5043.8699zm-.4362-2.4963-1.5911-2.7585c-1.5129.875-2.5316 2.5089-2.5316 4.3824h3.1847c0-.6934.3782-1.3011.938-1.6264z"/>
</svg>